<svg width="24" height="18" viewBox="0 0 24 18" fill="none" xmlns="http://www.w3.org/2000/svg">
<path d="M18.0388 5.47023C18.0061 5.47023 1.69198 5.47023 1.69198 5.47023L5.12913 1.61772C5.35202 1.36788 5.33017 0.984678 5.08033 0.761788C4.83058 0.538945 4.44728 0.560695 4.22439 0.810585L0.353368 5.14933C-0.118146 5.67798 -0.118099 6.47504 0.353415 7.00356L4.22444 11.3423C4.34425 11.4766 4.51024 11.545 4.67697 11.545C4.82059 11.545 4.96474 11.4942 5.08038 11.3911C5.33022 11.1683 5.35202 10.7851 5.12917 10.5352L1.69202 6.68265C1.69202 6.68265 18.0061 6.68265 18.0389 6.68265C20.6572 6.68265 22.7873 8.81284 22.7873 11.4311C22.7873 14.0493 20.6571 16.1795 18.0389 16.1795H15.1523C14.8175 16.1795 14.5461 16.451 14.5461 16.7857C14.5461 17.1205 14.8175 17.392 15.1523 17.392H18.0389C21.3257 17.392 23.9997 14.7179 23.9997 11.4311C23.9997 8.14426 21.3257 5.47023 18.0388 5.47023Z" fill="#01ECD2"/>
</svg>
