<svg width="10" height="20" viewBox="0 0 10 20" fill="none" xmlns="http://www.w3.org/2000/svg">
<path d="M1.35768 10.3355L1.04198 9.99536L1.35768 9.65521L9.42065 0.9681C9.51558 0.859518 9.51491 0.676239 9.41851 0.568687C9.37373 0.518736 9.32344 0.500841 9.2801 0.500029C9.23755 0.499231 9.18847 0.514618 9.14356 0.560196L0.575648 9.79134C0.575631 9.79136 0.575614 9.79138 0.575597 9.7914C0.474801 9.90009 0.474801 10.0906 0.575597 10.1993C0.575614 10.1993 0.575631 10.1994 0.575648 10.1994L9.14725 19.4345C9.19238 19.4831 9.24251 19.5 9.28582 19.5C9.32909 19.5 9.37921 19.4831 9.42435 19.4346C9.52522 19.3259 9.52522 19.1353 9.42435 19.0266L1.35768 10.3355Z" fill="#AAAFBE" stroke="#E5E5E5"/>
</svg>
