<svg width="14" height="14" viewBox="0 0 14 14" fill="none" xmlns="http://www.w3.org/2000/svg">
<g clip-path="url(#clip0)">
<path d="M10.5227 4.94098C10.5036 4.94098 0.987006 4.94098 0.987006 4.94098L2.99201 2.69368C3.12203 2.54794 3.10929 2.3244 2.96354 2.19438C2.81786 2.06439 2.59427 2.07708 2.46425 2.22285L0.206152 4.75378C-0.0688983 5.06216 -0.068871 5.52711 0.206179 5.83541L2.46428 8.36637C2.53417 8.44471 2.63099 8.48458 2.72825 8.48458C2.81203 8.48458 2.89612 8.45497 2.96357 8.39484C3.10931 8.26482 3.12203 8.04129 2.99204 7.89554L0.987033 5.64822C0.987033 5.64822 10.5036 5.64822 10.5227 5.64822C12.05 5.64822 13.2926 6.89083 13.2926 8.41814C13.2926 9.94545 12.05 11.1881 10.5227 11.1881H8.83886C8.64354 11.1881 8.48522 11.3464 8.48522 11.5417C8.48522 11.737 8.64354 11.8953 8.83886 11.8953H10.5227C12.44 11.8953 13.9999 10.3355 13.9999 8.41814C13.9998 6.50082 12.44 4.94098 10.5227 4.94098Z" fill="#01ECD2"/>
</g>
<defs>
<clipPath id="clip0">
<rect width="14" height="14" fill="white"/>
</clipPath>
</defs>
</svg>
