<svg width="16" height="16" viewBox="0 0 16 16" fill="none" xmlns="http://www.w3.org/2000/svg">
<path d="M10.2796 3.72499C9.19869 3.72499 8.50216 4.19843 8.10816 4.59558C8.04572 4.65852 7.98882 4.72143 7.93713 4.78312C7.88544 4.72143 7.82854 4.65852 7.7661 4.59558C7.37213 4.19843 6.6756 3.72499 5.59463 3.72499C3.93676 3.72499 2.78363 5.15274 2.78363 6.83412C2.78363 9.12296 5.06022 10.6987 7.62369 13.0059L7.93713 13.288L8.25057 13.0059C10.9631 10.5646 13.0906 9.07833 13.0906 6.83408C13.0906 5.15565 11.94 3.72499 10.2796 3.72499ZM7.93716 12.0288C5.44938 9.81202 3.72066 8.51271 3.72066 6.83408C3.72066 5.59577 4.52629 4.66196 5.59466 4.66196C7.00082 4.66196 7.47182 5.75715 7.50029 5.8268L7.92713 6.99062L8.37454 5.82546C8.37901 5.81383 8.83801 4.66196 10.2797 4.66196C11.348 4.66196 12.1537 5.59577 12.1537 6.83408C12.1536 8.54096 10.3317 9.89505 7.93716 12.0288Z" fill="#01ECD2"/>
<path d="M15.0116 15.1681C14.4426 14.6915 14.1258 13.9805 14.1176 13.1634C15.3273 11.7283 15.9914 9.90201 15.9914 8.00004C15.9914 3.59744 12.398 0.00431824 7.99569 0.00431824C3.59309 0.00431824 0 3.59772 0 8.00004C0 12.4026 3.59338 15.9958 7.99572 15.9958C9.16175 15.9958 10.282 15.7506 11.3289 15.2668C12.4048 15.7507 13.5414 15.9958 14.7109 15.9958H16L15.0116 15.1681ZM11.3228 14.2272C11.1804 14.2803 9.92884 15.0588 7.99569 15.0588C4.1035 15.0588 0.937 11.8922 0.937 8.00004C0.937 4.10785 4.1035 0.941318 7.99572 0.941318C11.8879 0.941318 15.0544 4.10785 15.0544 8.00004C15.0544 9.73413 14.4305 11.396 13.2977 12.6795L13.1804 12.8123C13.1975 12.9828 13.0716 13.9669 13.6525 14.9818C12.3389 14.7886 11.4605 14.2828 11.3228 14.2272Z" fill="#01ECD2"/>
</svg>
