<svg width="32" height="33" viewBox="0 0 32 33" fill="none" xmlns="http://www.w3.org/2000/svg">
<path d="M16 0.141357C7.17752 0.141357 0 7.50686 0 16.5602C0 25.6136 7.17752 32.9791 16 32.9791C24.8225 32.9791 32 25.6136 32 16.5602C32 7.50686 24.8225 0.141357 16 0.141357ZM15.724 23.073L14.6203 24.2057C12.9428 25.9272 10.2273 25.9275 8.54946 24.2057C6.87578 22.4882 6.87578 19.6936 8.54946 17.9761L11.8608 14.578C13.5346 12.8607 16.2578 12.8607 17.9316 14.5779C18.3888 15.0471 18.3888 15.8077 17.9316 16.277C17.4744 16.7461 16.7331 16.7462 16.2759 16.2771C15.5151 15.4963 14.2772 15.4965 13.5165 16.277L10.2051 19.6751C9.44437 20.4557 9.44437 21.7261 10.2051 22.5067C10.9659 23.2875 12.2038 23.2874 12.9645 22.5067L14.0683 21.3741C14.5255 20.9049 15.2668 20.9049 15.7239 21.3741C16.1811 21.8432 16.1812 22.604 15.724 23.073ZM23.4505 15.1443L20.1392 18.5424C18.4654 20.2599 15.7423 20.2598 14.0684 18.5425C13.6112 18.0733 13.6112 17.3127 14.0684 16.8434C14.5256 16.3743 15.2669 16.3742 15.7241 16.8433C16.4848 17.6241 17.7228 17.624 18.4835 16.8434L21.7949 13.4454C22.5556 12.6647 22.5556 11.3944 21.7949 10.6137C21.0341 9.83305 19.7963 9.83321 19.0355 10.6137L17.9317 11.7464C17.4745 12.2155 16.7333 12.2155 16.2761 11.7464C15.8189 11.2772 15.8189 10.5166 16.2761 10.0474L17.3798 8.91471C19.0573 7.19321 21.7728 7.19289 23.4506 8.91471C25.1241 10.6322 25.1241 13.4269 23.4505 15.1443Z" fill="#01ECD2"/>
</svg>
