<svg width="14" height="14" viewBox="0 0 14 14" fill="none" xmlns="http://www.w3.org/2000/svg">
<g clip-path="url(#clip0)">
<path d="M7.77319 7.0008L13.8396 0.934368C14.0532 0.720786 14.0532 0.374504 13.8396 0.160949C13.626 -0.0526052 13.2797 -0.0526326 13.0662 0.160949L6.99975 6.22738L0.933359 0.160949C0.719777 -0.0526326 0.373496 -0.0526326 0.159942 0.160949C-0.0536122 0.374532 -0.0536396 0.720813 0.159942 0.934368L6.22633 7.00077L0.159942 13.0672C-0.0536396 13.2808 -0.0536396 13.6271 0.159942 13.8406C0.266719 13.9474 0.406692 14.0008 0.546664 14.0008C0.686636 14.0008 0.826582 13.9474 0.933386 13.8406L6.99975 7.77422L13.0661 13.8406C13.1729 13.9474 13.3129 14.0008 13.4529 14.0008C13.5928 14.0008 13.7328 13.9474 13.8396 13.8406C14.0532 13.627 14.0532 13.2808 13.8396 13.0672L7.77319 7.0008Z" fill="#01ECD2"/>
</g>
<defs>
<clipPath id="clip0">
<rect width="14" height="14" fill="white"/>
</clipPath>
</defs>
</svg>
