<svg width="78" height="79" viewBox="0 0 78 79" fill="none" xmlns="http://www.w3.org/2000/svg">
<g clip-path="url(#clip0)">
<path d="M45.4456 7.25808C41.4824 10.3498 36.5185 10.351 32.5541 7.25808L31.025 9.21853C33.4467 11.1081 36.2052 12.1076 38.9998 12.1076C41.7944 12.1076 44.553 11.1081 46.9746 9.21728L45.4456 7.25808Z" fill="#01ECD2"/>
<path d="M51.0377 42.6718V41.6188C51.8221 38.5868 53.3151 35.74 55.3775 33.3842C58.9913 29.252 60.9829 23.9549 60.9829 18.4664V11.3083C60.9829 5.29646 56.0911 0.404663 50.0792 0.404663C47.6314 0.404663 45.2657 1.24006 43.2369 2.82135C41.003 4.563 38.6944 4.563 36.4605 2.82135C34.4329 1.24006 32.0659 0.404663 29.6194 0.404663C23.6076 0.404663 18.7158 5.29646 18.7158 11.3083V18.4664C18.7158 23.9549 20.7073 29.252 24.3211 33.3842C26.3835 35.7412 27.8765 38.5868 28.661 41.6188V42.6718V45.1581V47.6444H32.3904V51.1836L30.9707 51.3862L31.3225 53.8464L32.3904 53.6948V56.1562L30.9707 56.3588L31.3225 58.819L32.3904 58.6674V61.1288L30.9707 61.3314L31.3225 63.7916L32.3904 63.64V66.1014L30.9707 66.304L31.3225 68.7642L32.3904 68.6126V70.5357L39.8493 77.9946L47.3082 70.5357V66.4818L48.7279 66.2792L48.3761 63.819L47.3082 63.9706V61.5092L48.7279 61.3066L48.3761 58.8464L47.3082 58.998V56.5366L48.7279 56.334L48.3761 53.8738L47.3082 54.0254V51.564L48.7279 51.3614L48.3761 48.9012L47.3082 49.0528V47.6444H51.0377V45.1581V42.6718ZM44.8219 69.5064L39.8493 74.479L34.8767 69.5064V68.257L44.8219 66.8361V69.5064ZM44.8219 64.3262L34.8767 65.7471V63.2857L44.8219 61.8647V64.3262ZM44.8219 59.3536L34.8767 60.7745V58.3131L44.8219 56.8922V59.3536ZM44.8219 54.381L34.8767 55.8019V53.3405L44.8219 51.9195V54.381ZM44.8219 49.4084L34.8767 50.8293V47.6444H44.8219V49.4084ZM48.8559 40.1867H44.8219V42.673H48.5514V45.1581H47.3082H32.3904H31.1473V42.6718H42.3356V40.1855H30.8427C29.9141 37.0838 28.3241 34.1823 26.1933 31.7457C22.9748 28.0685 21.2021 23.352 21.2021 18.4664V11.3083C21.2021 6.66765 24.9775 2.89096 29.6194 2.89096C31.509 2.89096 33.3452 3.54486 34.9314 4.78179C38.0617 7.2221 41.6382 7.2221 44.7672 4.78179C46.3535 3.54486 48.1908 2.89096 50.0792 2.89096C54.7211 2.89096 58.4966 6.66765 58.4966 11.3083V18.4664C58.4966 23.352 56.7238 28.0685 53.5053 31.747C51.3746 34.1835 49.7833 37.085 48.8559 40.1867Z" fill="#01ECD2"/>
</g>
<defs>
<clipPath id="clip0">
<rect width="77.7143" height="77.7143" fill="white" transform="translate(0.142883 0.85714)"/>
</clipPath>
</defs>
</svg>
