<svg width="20" height="18" viewBox="0 0 20 18" fill="none" xmlns="http://www.w3.org/2000/svg">
<path d="M19.8091 15.5819L11.2193 0.703984C10.9648 0.263164 10.509 0 10 0C9.49098 0 9.03516 0.263164 8.78066 0.703984L0.190898 15.5819C-0.0636328 16.0227 -0.0636328 16.5491 0.190898 16.9898C0.445391 17.4307 0.901211 17.6938 1.41023 17.6938H18.5898C19.0988 17.6938 19.5546 17.4307 19.8091 16.9898C20.0636 16.5491 20.0636 16.0227 19.8091 15.5819ZM18.793 16.4032C18.7677 16.447 18.7076 16.5205 18.5898 16.5205H1.41023C1.29234 16.5205 1.23227 16.4471 1.20703 16.4032C1.18176 16.3594 1.14809 16.2706 1.20703 16.1686L9.79676 1.29063C9.8557 1.18855 9.94938 1.17328 9.99996 1.17328C10.0506 1.17328 10.1443 1.18852 10.2032 1.29063L18.793 16.1686C18.852 16.2706 18.8183 16.3594 18.793 16.4032Z" fill="#01ECD2"/>
<path d="M10.5874 5.33502H9.41406V11.5927H10.5874V5.33502Z" fill="#01ECD2"/>
<path d="M10 14.3305C10.432 14.3305 10.7822 13.9802 10.7822 13.5482C10.7822 13.1162 10.432 12.766 10 12.766C9.56799 12.766 9.21777 13.1162 9.21777 13.5482C9.21777 13.9802 9.56799 14.3305 10 14.3305Z" fill="#01ECD2"/>
</svg>
