<svg width="28" height="25" viewBox="0 0 28 25" fill="none" xmlns="http://www.w3.org/2000/svg">
<path d="M25.9571 2.42998C24.5761 0.862969 22.6602 0 20.5625 0C17.6122 0 15.7444 1.76203 14.697 3.24023C14.4253 3.62381 14.1941 4.00843 14 4.37035C13.8059 4.00843 13.5748 3.62381 13.303 3.24023C12.2556 1.76203 10.3878 0 7.4375 0C5.3398 0 3.42393 0.863024 2.04285 2.43004C0.725539 3.92487 0 5.92687 0 8.06723C0 10.3971 0.909617 12.5641 2.86262 14.8868C4.60808 16.9627 7.11916 19.1025 10.027 21.5803C11.1105 22.5037 12.231 23.4585 13.4239 24.5022L13.4597 24.5336C13.6143 24.669 13.8072 24.7367 14 24.7367C14.1928 24.7367 14.3857 24.669 14.5403 24.5336L14.5761 24.5022C15.769 23.4585 16.8895 22.5037 17.9732 21.5802C20.8808 19.1026 23.3919 16.9627 25.1374 14.8868C27.0904 12.564 28 10.3971 28 8.06723C28 5.92687 27.2745 3.92487 25.9571 2.42998ZM16.909 20.3316C15.9749 21.1275 15.0136 21.9467 14 22.8279C12.9864 21.9468 12.0251 21.1276 11.0908 20.3315C5.40012 15.4822 1.64062 12.2785 1.64062 8.06723C1.64062 6.32652 2.22059 4.70974 3.2737 3.51477C4.33891 2.30623 5.8176 1.64062 7.4375 1.64062C9.68674 1.64062 11.1407 3.0263 11.9643 4.18873C12.7031 5.2313 13.0886 6.28228 13.22 6.68571C13.33 7.02341 13.6449 7.25194 14 7.25194C14.3551 7.25194 14.67 7.02341 14.78 6.68571C14.9114 6.28228 15.2969 5.2313 16.0357 4.18868C16.8593 3.0263 18.3133 1.64062 20.5625 1.64062C22.1824 1.64062 23.6611 2.30623 24.7262 3.51477C25.7794 4.70974 26.3594 6.32652 26.3594 8.06723C26.3594 12.2785 22.5999 15.4822 16.909 20.3316Z" fill="#16B0A7"/>
</svg>
