<svg width="32" height="34" viewBox="0 0 32 34" fill="none" xmlns="http://www.w3.org/2000/svg">
<rect y="0.230347" width="32" height="32.8377" rx="16" fill="#262626"/>
<path d="M12.6672 16.6492C12.6672 14.7601 14.1591 13.2283 16 13.2283C17.8409 13.2283 19.3336 14.7601 19.3336 16.6492C19.3336 18.5382 17.8409 20.07 16 20.07C14.1591 20.07 12.6672 18.5382 12.6672 16.6492ZM10.8651 16.6492C10.8651 19.5594 13.164 21.9185 16 21.9185C18.836 21.9185 21.1349 19.5594 21.1349 16.6492C21.1349 13.7389 18.836 11.3799 16 11.3799C13.164 11.3799 10.8651 13.7389 10.8651 16.6492ZM20.1382 11.1709C20.1381 11.4145 20.2084 11.6526 20.3401 11.8552C20.4719 12.0577 20.6593 12.2156 20.8785 12.3089C21.0977 12.4022 21.339 12.4267 21.5718 12.3793C21.8046 12.3319 22.0185 12.2147 22.1863 12.0425C22.3542 11.8704 22.4686 11.651 22.515 11.4122C22.5614 11.1733 22.5377 10.9257 22.447 10.7006C22.3563 10.4756 22.2025 10.2832 22.0052 10.1478C21.808 10.0124 21.576 9.94012 21.3386 9.94002H21.3382C21.02 9.94017 20.715 10.0699 20.49 10.3007C20.265 10.5315 20.1384 10.8445 20.1382 11.1709ZM11.96 25.002C10.985 24.9564 10.4551 24.7898 10.103 24.649C9.63608 24.4625 9.30296 24.2403 8.95272 23.8814C8.60248 23.5225 8.38568 23.181 8.20472 22.7019C8.06744 22.3407 7.90504 21.7967 7.86072 20.7962C7.81224 19.7146 7.80256 19.3896 7.80256 16.6493C7.80256 13.9089 7.81304 13.5848 7.86072 12.5023C7.90512 11.5018 8.06872 10.9589 8.20472 10.5966C8.38648 10.1175 8.60296 9.77567 8.95272 9.41626C9.30248 9.05685 9.63528 8.83437 10.103 8.64868C10.455 8.5078 10.985 8.34115 11.96 8.29567C13.0141 8.24592 13.3307 8.23599 16 8.23599C18.6693 8.23599 18.9862 8.24674 20.0412 8.29567C21.0162 8.34123 21.5452 8.50912 21.8982 8.64868C22.3651 8.83437 22.6982 9.05734 23.0485 9.41626C23.3987 9.77517 23.6147 10.1175 23.7965 10.5966C23.9338 10.9578 24.0962 11.5018 24.1405 12.5023C24.189 13.5848 24.1986 13.9089 24.1986 16.6493C24.1986 19.3896 24.189 19.7137 24.1405 20.7962C24.0961 21.7967 23.9329 22.3405 23.7965 22.7019C23.6147 23.181 23.3982 23.5228 23.0485 23.8814C22.6987 24.24 22.3651 24.4625 21.8982 24.649C21.5462 24.7899 21.0162 24.9565 20.0412 25.002C18.9871 25.0518 18.6705 25.0617 16 25.0617C13.3295 25.0617 13.0138 25.0518 11.96 25.002ZM11.8772 6.44954C10.8126 6.49928 10.0852 6.6725 9.44992 6.92617C8.792 7.18814 8.23504 7.53958 7.67848 8.10981C7.12192 8.68004 6.78032 9.25248 6.52504 9.92762C6.27784 10.5799 6.10904 11.326 6.06056 12.4184C6.01128 13.5126 6 13.8624 6 16.6492C6 19.4359 6.01128 19.7857 6.06056 20.8799C6.10904 21.9724 6.27784 22.7184 6.52504 23.3707C6.78032 24.0455 7.122 24.6186 7.67848 25.1885C8.23496 25.7585 8.792 26.1095 9.44992 26.3722C10.0864 26.6258 10.8126 26.7991 11.8772 26.8488C12.944 26.8986 13.2843 26.9109 16 26.9109C18.7157 26.9109 19.0566 26.8994 20.1228 26.8488C21.1874 26.7991 21.9144 26.6258 22.5501 26.3722C23.2076 26.1095 23.765 25.7588 24.3215 25.1885C24.8781 24.6183 25.219 24.0455 25.475 23.3707C25.7222 22.7184 25.8918 21.9723 25.9394 20.8799C25.9879 19.7849 25.9992 19.4359 25.9992 16.6492C25.9992 13.8624 25.9879 13.5126 25.9394 12.4184C25.891 11.3259 25.7222 10.5795 25.475 9.92762C25.219 9.25289 24.8772 8.68094 24.3215 8.10981C23.7658 7.53868 23.2076 7.18814 22.5509 6.92617C21.9144 6.6725 21.1874 6.49846 20.1236 6.44954C19.0574 6.39979 18.7165 6.38739 16.0008 6.38739C13.2851 6.38739 12.944 6.39897 11.8772 6.44954Z" fill="white"/>
</svg>
