<svg width="20" height="18" viewBox="0 0 20 18" fill="none" xmlns="http://www.w3.org/2000/svg">
<path d="M2.91114 17.8051H1.49401L2.4961 16.803C3.03641 16.2626 3.37382 15.5599 3.46453 14.7975C2.05459 13.8723 1.02358 12.6549 0.471684 11.2589C-0.079823 9.8639 -0.149128 8.32827 0.271282 6.81795C0.775712 5.00572 1.95883 3.35394 3.60263 2.16682C5.38892 0.876868 7.61264 0.195007 10.0334 0.195007C13.083 0.195007 15.6534 1.07117 17.4667 2.7287C19.1003 4.22199 20 6.23623 20 8.40043C20 9.45187 19.7859 10.4749 19.3637 11.4412C18.9268 12.4411 18.287 13.3314 17.4621 14.0874C15.6463 15.7514 13.0775 16.6311 10.0334 16.6311C8.90333 16.6311 7.72413 16.4802 6.67132 16.2034C5.67479 17.2256 4.32441 17.8051 2.91114 17.8051ZM10.0334 1.36901C5.17936 1.36901 2.20087 4.26383 1.40228 7.13278C0.647628 9.84394 1.76007 12.4057 4.3781 13.9856L4.67062 14.1622L4.66162 14.5037C4.64378 15.1797 4.48263 15.8308 4.19417 16.4193C4.89658 16.1817 5.53395 15.7508 6.03305 15.1612L6.28124 14.8679L6.64929 14.978C7.68214 15.2869 8.88396 15.457 10.0334 15.457C16.0745 15.457 18.826 11.7991 18.826 8.40043C18.826 6.56992 18.062 4.86339 16.6746 3.59523C15.0814 2.13884 12.7849 1.36901 10.0334 1.36901Z" fill="#01ECD2"/>
</svg>
