<svg width="33" height="21" viewBox="0 0 33 21" fill="none" xmlns="http://www.w3.org/2000/svg">
<path d="M16.2066 1.90853L16.5074 1.68202L16.8082 1.90853L31.1446 12.7049C31.4617 12.9331 32.0019 12.9324 32.3177 12.7027C32.4639 12.5964 32.4979 12.49 32.4995 12.4243C32.5009 12.3601 32.4733 12.2577 32.3385 12.1515L17.1044 0.67917C16.9574 0.568485 16.7431 0.499756 16.5074 0.499756C16.2718 0.499756 16.0575 0.568468 15.9104 0.679127C15.9104 0.679142 15.9104 0.679156 15.9104 0.67917L0.672601 12.1543C0.530986 12.261 0.5 12.3659 0.5 12.431C0.5 12.4961 0.530993 12.601 0.67263 12.7078C0.819647 12.8184 1.03392 12.8871 1.26952 12.8871C1.50516 12.8871 1.71947 12.8184 1.86649 12.7077C1.8665 12.7077 1.86651 12.7077 1.86652 12.7077L16.2066 1.90853Z" fill="#01ECD2" stroke="#01ECD2"/>
<path d="M16.2066 8.90755L16.5074 8.68104L16.8082 8.90755L31.1446 19.7039C31.4617 19.9321 32.0019 19.9314 32.3177 19.7018C32.4639 19.5955 32.4979 19.489 32.4995 19.4234C32.5009 19.3592 32.4733 19.2568 32.3385 19.1506L17.1044 7.67819C16.9574 7.56751 16.7431 7.49878 16.5074 7.49878C16.2718 7.49878 16.0575 7.56749 15.9104 7.67815C15.9104 7.67817 15.9104 7.67818 15.9104 7.67819L0.672601 19.1533C0.530986 19.26 0.5 19.3649 0.5 19.43C0.5 19.4951 0.530993 19.6001 0.67263 19.7068C0.819647 19.8174 1.03392 19.8861 1.26952 19.8861C1.50516 19.8861 1.71947 19.8174 1.86649 19.7067C1.8665 19.7067 1.86651 19.7067 1.86652 19.7067L16.2066 8.90755Z" fill="#01ECD2" stroke="#01ECD2"/>
</svg>
