<svg width="78" height="70" viewBox="0 0 78 70" fill="none" xmlns="http://www.w3.org/2000/svg">
<path d="M26.1402 1.6587C17.1691 1.6587 11.2505 10.7307 11.2505 21.9218C11.2505 33.113 17.1693 68.408 26.1402 68.408C31.3733 68.408 31.9682 39.0978 38.9996 39.0711C47.3846 39.098 46.6257 68.408 51.8589 68.408C60.83 68.408 66.7486 33.1132 66.7486 21.9218C66.7486 10.7305 60.83 1.6587 51.8591 1.6587C47.5728 1.6587 43.2859 5.23456 38.9997 5.23456C34.7136 5.23456 30.4265 1.6587 26.1402 1.6587Z" fill="white"/>
<path d="M51.8591 69.6C48.4127 69.6 47.3725 64.3972 45.797 56.5207C44.503 50.0513 42.5463 40.2745 38.9945 40.2636C36.3359 40.2738 34.1579 49.8654 32.8558 55.5969C30.824 64.54 29.5103 69.6 26.1405 69.6C15.1215 69.6 9.89707 31.3573 9.89707 21.9218C9.89687 9.4903 16.7285 0.466667 26.1403 0.466667C28.5883 0.466667 30.907 1.43397 33.1486 2.36896C35.2122 3.2301 37.1607 4.04253 38.9996 4.04253C40.8385 4.04253 42.787 3.23028 44.8506 2.36896C47.0924 1.43397 49.4111 0.466667 51.8591 0.466667C61.2709 0.466667 68.1025 9.4903 68.1025 21.9218C68.1025 31.3573 62.8782 69.6 51.8591 69.6ZM38.9943 37.8791C44.8196 37.8969 46.672 47.1543 48.4629 56.1071C49.309 60.3403 50.5887 66.7376 51.9025 67.2221C54.2173 67.2155 57.9492 62.4567 61.3474 49.1008C63.8807 39.1427 65.3954 27.4614 65.3954 21.9218C65.3954 10.8712 59.702 2.85051 51.8591 2.85051C50.0202 2.85051 48.0717 3.66277 46.0082 4.52408C43.7666 5.45925 41.4478 6.42637 38.9998 6.42637C36.5518 6.42637 34.2331 5.45908 31.9915 4.52408C29.9279 3.66294 27.9794 2.85051 26.1405 2.85051C18.2976 2.85051 12.6042 10.8712 12.6042 21.9218C12.6042 27.4614 14.1189 39.1425 16.6516 49.1008C20.0506 62.4572 23.7825 67.2162 26.1405 67.2162C27.5578 66.7632 29.2125 59.4804 30.2014 55.1291C32.2147 46.2675 34.1151 37.8976 38.9943 37.8791Z" fill="#00EFD1"/>
<path d="M54.5664 32.6102H23.4332C22.7104 32.6102 22.1243 32.094 22.1243 31.4576V14.7701C22.1243 14.1342 22.7098 13.6176 23.4332 13.6176H54.5664C55.2891 13.6176 55.8752 14.1337 55.8752 14.7701V31.4574C55.8752 32.0933 55.2891 32.6102 54.5664 32.6102ZM24.7421 30.3049H53.2581V15.9227H24.7421V30.3049Z" fill="#CFFFFA"/>
<path d="M23.4333 20.7298H1.77538V25.4977H23.4333V20.7298Z" fill="white"/>
<path d="M23.4335 26.6502H1.77554C1.05279 26.6502 0.466667 26.1341 0.466667 25.4977V20.7298C0.466667 20.0939 1.0522 19.5773 1.77554 19.5773H23.4335C24.1563 19.5773 24.7424 20.0934 24.7424 20.7298V25.4977C24.7424 26.1336 24.1563 26.6502 23.4335 26.6502ZM3.08441 24.3451H22.125V21.882H3.08441V24.3451Z" fill="#CFFFFA"/>
<path d="M76.2243 20.7298H54.5663V25.4977H76.2243V20.7298Z" fill="white"/>
<path d="M76.2245 26.6502H54.5665C53.8437 26.6502 53.2576 26.1341 53.2576 25.4977V20.7298C53.2576 20.0939 53.8431 19.5773 54.5665 19.5773H76.2245C76.9472 19.5773 77.5333 20.0934 77.5333 20.7298V25.4977C77.5333 26.1336 76.9472 26.6502 76.2245 26.6502ZM55.8754 24.3451H74.916V21.882H55.8754V24.3451Z" fill="#CFFFFA"/>
</svg>
