<svg width="79" height="78" viewBox="0 0 79 78" fill="none" xmlns="http://www.w3.org/2000/svg">
<g clip-path="url(#clip0)">
<path d="M5.57022 16.2143H73.5727C75.83 16.2143 77.6798 18.0631 77.6798 20.3214V28.8214C77.6798 31.0787 75.8299 32.9286 73.5727 32.9286H5.57022C3.313 32.9286 1.46307 31.0787 1.46307 28.8214V20.3214C1.46307 18.0642 3.313 16.2143 5.57022 16.2143Z" stroke="#00EFD1" stroke-width="1.5"/>
<path d="M73.625 33.6786V38.2857H63.1964V33.0714C63.1964 30.1859 65.5252 27.8571 68.4107 27.8571C71.2844 27.8571 73.625 30.1863 73.625 33.0714V33.6786Z" fill="white" stroke="#01ECD2" stroke-width="0.5"/>
<path d="M50.5414 33.0714V38.2857H40.125V33.0714V33.0711V33.0709V33.0706V33.0703V33.07V33.0697V33.0694V33.0692V33.0689V33.0686V33.0683V33.068V33.0678V33.0675V33.0672V33.0669V33.0666V33.0664V33.0661V33.0658V33.0655V33.0652V33.065V33.0647V33.0644V33.0641V33.0639V33.0636V33.0633V33.063V33.0628V33.0625V33.0622V33.0619V33.0617V33.0614V33.0611V33.0608V33.0606V33.0603V33.06V33.0597V33.0595V33.0592V33.0589V33.0586V33.0584V33.0581V33.0578V33.0576V33.0573V33.057V33.0567V33.0565V33.0562V33.0559V33.0557V33.0554V33.0551V33.0549V33.0546V33.0543V33.0541V33.0538V33.0535V33.0533V33.053V33.0527V33.0525V33.0522V33.0519V33.0517V33.0514V33.0511V33.0509V33.0506V33.0503V33.0501V33.0498V33.0495V33.0493V33.049V33.0488V33.0485V33.0482V33.048V33.0477V33.0474V33.0472V33.0469V33.0467V33.0464V33.0461V33.0459V33.0456V33.0453V33.0451V33.0448V33.0446V33.0443V33.044V33.0438V33.0435V33.0433V33.043V33.0427V33.0425V33.0422V33.042V33.0417V33.0415V33.0412V33.0409V33.0407V33.0404V33.0402V33.0399V33.0397V33.0394V33.0391V33.0389V33.0386V33.0384V33.0381V33.0379V33.0376V33.0373V33.0371V33.0368V33.0366V33.0363V33.0361V33.0358V33.0356V33.0353V33.0351V33.0348V33.0345V33.0343V33.034V33.0338V33.0335V33.0333V33.033V33.0328V33.0325V33.0323V33.032V33.0318V33.0315V33.0313V33.031V33.0308V33.0305V33.0303V33.03V33.0297V33.0295V33.0292V33.029V33.0287V33.0285V33.0282V33.028V33.0277V33.0275V33.0272V33.027V33.0267V33.0265V33.0262V33.026V33.0257V33.0255V33.0252V33.025V33.0247V33.0245V33.0242V33.024V33.0237V33.0235V33.0233V33.023V33.0228V33.0225V33.0223V33.022V33.0218V33.0215V33.0213V33.021V33.0208V33.0205V33.0203V33.02V33.0198V33.0195V33.0193V33.019V33.0188V33.0185V33.0183V33.018V33.0178V33.0176V33.0173V33.0171V33.0168V33.0166V33.0163V33.0161V33.0158V33.0156V33.0153V33.0151V33.0148V33.0146V33.0143V33.0141V33.0139V33.0136V33.0134V33.0131V33.0129V33.0126V33.0124V33.0121V33.0119V33.0116V33.0114V33.0111V33.0109V33.0107V33.0104V33.0102V33.0099V33.0097V33.0094V33.0092V33.0089V33.0087V33.0084V33.0082V33.008V33.0077V33.0075V33.0072V33.007V33.0067V33.0065V33.0062V33.006V33.0057V33.0055V33.0053V33.005V33.0048V33.0045V33.0043V33.004V33.0038V33.0035V33.0033V33.003V33.0028V33.0026V33.0023V33.0021V33.0018V33.0016V33.0013V33.0011V33.0008V33.0006V33.0003V33.0001V32.9999V32.9996V32.9994V32.9991V32.9989V32.9986V32.9984V32.9981V32.9979V32.9976V32.9974V32.9971V32.9969V32.9967V32.9964V32.9962V32.9959V32.9957V32.9954V32.9952V32.9949V32.9947V32.9944V32.9942V32.9939V32.9937V32.9935V32.9932V32.993V32.9927V32.9925V32.9922V32.992V32.9917V32.9915V32.9912V32.991V32.9907V32.9905V32.9902V32.99V32.9897V32.9895V32.9892V32.989V32.9887V32.9885V32.9883V32.988V32.9878V32.9875V32.9873V32.987V32.9868V32.9865V32.9863V32.986V32.9858V32.9855V32.9853V32.985V32.9848V32.9845V32.9843V32.984V32.9838V32.9835V32.9833V32.983V32.9828V32.9825V32.9823V32.982V32.9818V32.9815V32.9813V32.981V32.9808V32.9805V32.9803V32.98V32.9798V32.9795V32.9793V32.979V32.9787V32.9785V32.9782V32.978V32.9777V32.9775V32.9772V32.977V32.9767V32.9765V32.9762V32.976V32.9757V32.9755V32.9752V32.9749V32.9747V32.9744V32.9742V32.9739V32.9737V32.9734V32.9732V32.9729V32.9727V32.9724V32.9721V32.9719V32.9716V32.9714V32.9711V32.9709V32.9706V32.9703V32.9701V32.9698V32.9696V32.9693V32.9691V32.9688V32.9685V32.9683V32.968V32.9678V32.9675V32.9672V32.967V32.9667V32.9665V32.9662V32.9659V32.9657V32.9654V32.9652V32.9649V32.9646V32.9644V32.9641V32.9639V32.9636V32.9633V32.9631V32.9628V32.9625V32.9623V32.962V32.9618V32.9615V32.9612V32.961V32.9607V32.9604V32.9602V32.9599V32.9596V32.9594V32.9591V32.9588V32.9586V32.9583V32.9581V32.9578V32.9575V32.9573V32.957V32.9567V32.9564V32.9562V32.9559V32.9556V32.9554V32.9551V32.9548V32.9546V32.9543V32.954V32.9538V32.9535V32.9532V32.9529V32.9527V32.9524V32.9521V32.9519V32.9516V32.9513V32.951V32.9508V32.9505V32.9502V32.95V32.9497V32.9494V32.9491V32.9489V32.9486V32.9483V32.948V32.9478V32.9475V32.9472V32.9469V32.9467V32.9464V32.9461V32.9458V32.9455V32.9453V32.945V32.9447V32.9444V32.9442V32.9439V32.9436V32.9433V32.943V32.9428V32.9425V32.9422V32.9419V32.9417C40.1842 30.117 42.5002 27.8571 45.3393 27.8571C48.2241 27.8571 50.5414 30.184 50.5414 33.0714Z" fill="white" stroke="#01ECD2" stroke-width="0.5"/>
<path d="M27.4821 33.0714V38.2857H17.0536V33.0714C17.0536 30.1859 19.3823 27.8571 22.2678 27.8571C25.1534 27.8571 27.4821 30.1848 27.4821 33.0714Z" fill="white" stroke="#01ECD2" stroke-width="0.5"/>
<path d="M51.6485 33.3214H51.6606V33.0714C51.6606 30.1859 53.9894 27.8571 56.8749 27.8571C59.7487 27.8571 62.0892 30.1851 62.0892 33.0714V38.2857H51.6485V33.3214Z" fill="white" stroke="#01ECD2" stroke-width="0.5"/>
<path d="M39.0179 33.0714V38.2857H28.5893V33.0714C28.5893 30.1859 30.9181 27.8571 33.8036 27.8571C36.6298 27.8571 38.9468 30.1152 39.0179 32.9422V33.0714Z" fill="white" stroke="#01ECD2" stroke-width="0.5"/>
<path d="M15.9464 33.0714V38.2857H5.51785V33.6786V33.0714C5.51785 30.1863 7.85842 27.8571 10.7321 27.8571C13.6177 27.8571 15.9464 30.1848 15.9464 33.0714Z" fill="white" stroke="#01ECD2" stroke-width="0.5"/>
<path d="M73.5727 62.0714H5.57022C3.31288 62.0714 1.46307 60.2226 1.46307 57.9643V49.4643C1.46307 47.2082 3.31312 45.3571 5.57022 45.3571H73.5727C75.8297 45.3571 77.6798 47.2082 77.6798 49.4643V57.9643C77.6798 60.2226 75.83 62.0714 73.5727 62.0714Z" stroke="#00EFD1" stroke-width="1.5"/>
<path d="M5.51785 44.6071V40H15.9464V45.2143C15.9464 48.0998 13.6176 50.4286 10.7321 50.4286C7.85842 50.4286 5.51785 48.0994 5.51785 45.2143V44.6071Z" fill="white" stroke="#01ECD2" stroke-width="0.5"/>
<path d="M28.6015 45.2143V40H39.0179V45.2143V45.3441C38.9587 48.1699 36.6427 50.4286 33.8037 50.4286C30.9189 50.4286 28.6015 48.1005 28.6015 45.2143Z" fill="white" stroke="#01ECD2" stroke-width="0.5"/>
<path d="M51.6607 45.2143V40H62.0893V45.2143C62.0893 48.0998 59.7605 50.4286 56.875 50.4286C53.9895 50.4286 51.6607 48.0998 51.6607 45.2143Z" fill="white" stroke="#01ECD2" stroke-width="0.5"/>
<path d="M27.4943 44.9643H27.4822V45.2143C27.4822 48.0998 25.1534 50.4286 22.2679 50.4286C19.3942 50.4286 17.0536 48.0994 17.0536 45.2143V40H27.4943V44.9643Z" fill="white" stroke="#01ECD2" stroke-width="0.5"/>
<path d="M40.125 45.2143V40H50.5536V45.2143C50.5536 48.0998 48.2248 50.4286 45.3393 50.4286C42.513 50.4286 40.1961 48.1717 40.125 45.3435V45.3433V45.3431V45.3428V45.3425V45.3422V45.342V45.3417V45.3414V45.3411V45.3409V45.3406V45.3403V45.3401V45.3398V45.3395V45.3392V45.339V45.3387V45.3384V45.3382V45.3379V45.3376V45.3374V45.3371V45.3368V45.3366V45.3363V45.336V45.3358V45.3355V45.3352V45.335V45.3347V45.3344V45.3342V45.3339V45.3336V45.3334V45.3331V45.3328V45.3326V45.3323V45.332V45.3318V45.3315V45.3312V45.331V45.3307V45.3305V45.3302V45.3299V45.3297V45.3294V45.3291V45.3289V45.3286V45.3284V45.3281V45.3278V45.3276V45.3273V45.3271V45.3268V45.3265V45.3263V45.326V45.3258V45.3255V45.3252V45.325V45.3247V45.3245V45.3242V45.3239V45.3237V45.3234V45.3232V45.3229V45.3226V45.3224V45.3221V45.3219V45.3216V45.3214V45.3211V45.3209V45.3206V45.3203V45.3201V45.3198V45.3196V45.3193V45.3191V45.3188V45.3186V45.3183V45.318V45.3178V45.3175V45.3173V45.317V45.3168V45.3165V45.3163V45.316V45.3158V45.3155V45.3153V45.315V45.3147V45.3145V45.3142V45.314V45.3137V45.3135V45.3132V45.313V45.3127V45.3125V45.3122V45.312V45.3117V45.3115V45.3112V45.311V45.3107V45.3105V45.3102V45.31V45.3097V45.3095V45.3092V45.309V45.3087V45.3085V45.3082V45.308V45.3077V45.3075V45.3072V45.307V45.3067V45.3065V45.3062V45.306V45.3057V45.3055V45.3052V45.305V45.3047V45.3045V45.3042V45.304V45.3037V45.3035V45.3033V45.303V45.3028V45.3025V45.3023V45.302V45.3018V45.3015V45.3013V45.301V45.3008V45.3005V45.3003V45.3V45.2998V45.2995V45.2993V45.2991V45.2988V45.2986V45.2983V45.2981V45.2978V45.2976V45.2973V45.2971V45.2968V45.2966V45.2963V45.2961V45.2958V45.2956V45.2954V45.2951V45.2949V45.2946V45.2944V45.2941V45.2939V45.2936V45.2934V45.2931V45.2929V45.2927V45.2924V45.2922V45.2919V45.2917V45.2914V45.2912V45.2909V45.2907V45.2904V45.2902V45.29V45.2897V45.2895V45.2892V45.289V45.2887V45.2885V45.2882V45.288V45.2878V45.2875V45.2873V45.287V45.2868V45.2865V45.2863V45.286V45.2858V45.2855V45.2853V45.2851V45.2848V45.2846V45.2843V45.2841V45.2838V45.2836V45.2833V45.2831V45.2828V45.2826V45.2824V45.2821V45.2819V45.2816V45.2814V45.2811V45.2809V45.2806V45.2804V45.2801V45.2799V45.2797V45.2794V45.2792V45.2789V45.2787V45.2784V45.2782V45.2779V45.2777V45.2774V45.2772V45.277V45.2767V45.2765V45.2762V45.276V45.2757V45.2755V45.2752V45.275V45.2747V45.2745V45.2742V45.274V45.2737V45.2735V45.2733V45.273V45.2728V45.2725V45.2723V45.272V45.2718V45.2715V45.2713V45.271V45.2708V45.2705V45.2703V45.27V45.2698V45.2695V45.2693V45.269V45.2688V45.2685V45.2683V45.268V45.2678V45.2675V45.2673V45.2671V45.2668V45.2666V45.2663V45.2661V45.2658V45.2656V45.2653V45.2651V45.2648V45.2646V45.2643V45.2641V45.2638V45.2636V45.2633V45.2631V45.2628V45.2626V45.2623V45.262V45.2618V45.2615V45.2613V45.261V45.2608V45.2605V45.2603V45.26V45.2598V45.2595V45.2593V45.259V45.2588V45.2585V45.2583V45.258V45.2578V45.2575V45.2573V45.257V45.2567V45.2565V45.2562V45.256V45.2557V45.2555V45.2552V45.255V45.2547V45.2545V45.2542V45.2539V45.2537V45.2534V45.2532V45.2529V45.2527V45.2524V45.2521V45.2519V45.2516V45.2514V45.2511V45.2509V45.2506V45.2503V45.2501V45.2498V45.2496V45.2493V45.2491V45.2488V45.2485V45.2483V45.248V45.2478V45.2475V45.2472V45.247V45.2467V45.2465V45.2462V45.2459V45.2457V45.2454V45.2451V45.2449V45.2446V45.2444V45.2441V45.2438V45.2436V45.2433V45.243V45.2428V45.2425V45.2423V45.242V45.2417V45.2415V45.2412V45.2409V45.2407V45.2404V45.2401V45.2399V45.2396V45.2393V45.2391V45.2388V45.2385V45.2383V45.238V45.2377V45.2375V45.2372V45.2369V45.2367V45.2364V45.2361V45.2358V45.2356V45.2353V45.235V45.2348V45.2345V45.2342V45.234V45.2337V45.2334V45.2331V45.2329V45.2326V45.2323V45.2321V45.2318V45.2315V45.2312V45.231V45.2307V45.2304V45.2301V45.2299V45.2296V45.2293V45.229V45.2288V45.2285V45.2282V45.2279V45.2276V45.2274V45.2271V45.2268V45.2265V45.2263V45.226V45.2257V45.2254V45.2251V45.2249V45.2246V45.2243V45.224V45.2237V45.2235V45.2232V45.2229V45.2226V45.2223V45.222V45.2218V45.2215V45.2212V45.2209V45.2206V45.2203V45.2201V45.2198V45.2195V45.2192V45.2189V45.2186V45.2183V45.218V45.2178V45.2175V45.2172V45.2169V45.2166V45.2163V45.216V45.2157V45.2154V45.2152V45.2149V45.2146V45.2143Z" fill="white" stroke="#01ECD2" stroke-width="0.5"/>
<path d="M63.1964 45.2143V40H73.625V44.6071V45.2143C73.625 48.0994 71.2844 50.4286 68.4107 50.4286C65.5252 50.4286 63.1964 48.0998 63.1964 45.2143Z" fill="white" stroke="#01ECD2" stroke-width="0.5"/>
</g>
<defs>
<clipPath id="clip0">
<rect width="77.7143" height="77.7143" fill="white" transform="translate(0.714294 0.285721)"/>
</clipPath>
</defs>
</svg>
