<svg width="14" height="33" viewBox="0 0 14 33" fill="none" xmlns="http://www.w3.org/2000/svg">
<path d="M1.90878 16.2066L1.68226 16.5074L1.90878 16.8082L12.7051 31.1446C12.9333 31.4617 12.9326 32.0019 12.703 32.3177C12.5967 32.4639 12.4903 32.4979 12.4246 32.4995C12.3604 32.5009 12.258 32.4733 12.1518 32.3385L0.679415 17.1044C0.56873 16.9574 0.5 16.7431 0.5 16.5074C0.5 16.2718 0.568712 16.0575 0.679371 15.9104C0.679386 15.9104 0.6794 15.9104 0.679415 15.9104L12.1546 0.672601C12.2612 0.530986 12.3661 0.5 12.4312 0.5C12.4964 0.5 12.6013 0.530993 12.708 0.67263C12.8186 0.819647 12.8873 1.03392 12.8873 1.26952C12.8873 1.50516 12.8186 1.71947 12.7079 1.86649C12.7079 1.8665 12.7079 1.86651 12.7079 1.86652L1.90878 16.2066Z" fill="#E5E5E5" stroke="#E5E5E5"/>
</svg>
