<svg width="14" height="14" viewBox="0 0 14 14" fill="none" xmlns="http://www.w3.org/2000/svg">
<path d="M6.87176 3.40947L5.34051 1.87822C5.16988 1.70737 4.89251 1.70737 4.72188 1.87822L3.19063 3.40947C3.01979 3.58031 3.01979 3.85725 3.19063 4.02809C3.36126 4.19894 3.63863 4.19894 3.80926 4.02809L4.5937 3.24365V11.8125C4.5937 12.054 4.7897 12.25 5.0312 12.25C5.2727 12.25 5.46869 12.054 5.46869 11.8125V3.24365L6.25313 4.02809C6.33844 4.11362 6.45044 4.15628 6.56244 4.15628C6.67444 4.15628 6.78644 4.11362 6.87176 4.02809C7.0426 3.85725 7.0426 3.58031 6.87176 3.40947Z" fill="#01ECD2"/>
<path d="M10.8092 9.97194C10.6384 9.80109 10.3615 9.80109 10.1906 9.97194L9.40619 10.7564V2.1875C9.40619 1.946 9.21019 1.75 8.96869 1.75C8.72719 1.75 8.53119 1.946 8.53119 2.1875V10.7564L7.74676 9.97194C7.57591 9.80109 7.29876 9.80109 7.12813 9.97194C6.95729 10.1428 6.95729 10.4197 7.12813 10.5906L8.65938 12.1218C8.74491 12.2073 8.85669 12.25 8.96869 12.25C9.08069 12.25 9.19247 12.2073 9.278 12.1218L10.8092 10.5906C10.9801 10.4197 10.9801 10.1428 10.8092 9.97194Z" fill="#01ECD2"/>
</svg>
