<svg width="0" height="0" class="hidden">
  <symbol viewBox="0 0 42 42" fill="none" xmlns="http://www.w3.org/2000/svg" id="user-head">
    <path d="M32.31 33.003a7.15 7.15 0 0 0 .002-.254c-.033-6.162-5.063-11.202-11.225-11.249-6.277-.047-11.4 5.046-11.4 11.313l.003.261 22.62-.071zm0 0c-.061 3.736-2.668 6.958-6.301 7.875a20.484 20.484 0 0 1-10.019 0c-3.609-.91-6.215-4.096-6.3-7.804l22.62-.071z"
      fill="#01ECD2" stroke="#01ECD2"></path>
    <path d="M35.849 6.15A20.976 20.976 0 0 0 20.999 0 20.863 20.863 0 0 0 6.152 6.15 20.863 20.863 0 0 0 0 21a21.016 21.016 0 0 0 6.111 14.81c.284.285.765.027.691-.369a14.463 14.463 0 0 1-.24-2.629c0-5.99 3.668-11.14 8.876-13.322a.409.409 0 0 0 .128-.67 7.852 7.852 0 0 1-2.436-5.973c.142-4.1 3.46-7.432 7.559-7.59 4.483-.175 8.186 3.422 8.186 7.868 0 2.237-.938 4.26-2.441 5.694a.409.409 0 0 0 .128.67c5.208 2.183 8.875 7.333 8.875 13.323 0 .898-.082 1.777-.24 2.63-.073.395.407.653.691.367A21.015 21.015 0 0 0 42 21a20.859 20.859 0 0 0-6.15-14.849z"
      fill="#F5F8F7"></path>
    <path d="M25.75 13.125a4.75 4.75 0 1 1-9.5 0 4.75 4.75 0 0 1 9.5 0z" fill="#01ECD2" stroke="#01ECD2"></path>
  </symbol>
  
  <symbol viewBox="0 0 22 12" fill="none" xmlns="http://www.w3.org/2000/svg" id="arr-right">
    <path d="M21.53 6.53a.75.75 0 0 0 0-1.06L16.757.697a.75.75 0 0 0-1.06 1.06L19.939 6l-4.242 4.243a.75.75 0 0 0 1.06 1.06L21.53 6.53zM0 6.75h21v-1.5H0v1.5z" fill="#fff"></path>
  </symbol>

  <symbol viewBox="0 0 78 70" fill="none" xmlns="http://www.w3.org/2000/svg" id="ortodont">
    <path d="M26.14 1.659c-8.97 0-14.89 9.072-14.89 20.263 0 11.191 5.92 46.486 14.89 46.486 5.233 0 5.828-29.31 12.86-29.337 8.385.027 7.626 29.337 12.859 29.337 8.971 0 14.89-35.295 14.89-46.486 0-11.192-5.919-20.263-14.89-20.263-4.286 0-8.573 3.576-12.86 3.576-4.285 0-8.573-3.576-12.859-3.576z"
      fill="#fff"></path>
    <path d="M51.86 69.6c-3.447 0-4.487-5.203-6.063-13.08-1.294-6.469-3.25-16.245-6.802-16.256-2.66.01-4.837 9.601-6.14 15.333C30.825 64.54 29.51 69.6 26.142 69.6c-11.02 0-16.244-38.243-16.244-47.678C9.897 9.49 16.73.467 26.14.467c2.448 0 4.767.967 7.009 1.902 2.063.861 4.012 1.674 5.85 1.674 1.84 0 3.788-.813 5.852-1.674 2.241-.935 4.56-1.902 7.008-1.902 9.412 0 16.244 9.023 16.244 21.455 0 9.435-5.225 47.678-16.244 47.678zM38.993 37.88c5.826.017 7.678 9.274 9.469 18.227.846 4.233 2.126 10.63 3.44 11.115 2.314-.006 6.046-4.765 9.444-18.121 2.534-9.958 4.048-21.64 4.048-27.18 0-11.05-5.693-19.07-13.536-19.07-1.839 0-3.787.812-5.85 1.673-2.242.935-4.561 1.902-7.01 1.902-2.447 0-4.766-.967-7.008-1.902-2.063-.861-4.012-1.673-5.85-1.673-7.843 0-13.537 8.02-13.537 19.07 0 5.54 1.515 17.221 4.048 27.18 3.399 13.356 7.13 18.115 9.488 18.115 1.418-.453 3.072-7.736 4.061-12.087 2.014-8.861 3.914-17.231 8.793-17.25z"
      fill="#00EFD1"></path>
    <path d="M54.566 32.61H23.433c-.723 0-1.309-.516-1.309-1.152V14.77c0-.636.586-1.152 1.31-1.152h31.132c.723 0 1.31.516 1.31 1.152v16.687c0 .636-.587 1.153-1.31 1.153zm-29.824-2.305h28.516V15.923H24.742v14.382z" fill="#CFFFFA"></path>
    <path d="M23.433 20.73H1.775v4.768h21.658V20.73z" fill="#fff"></path>
    <path d="M23.433 26.65H1.776c-.723 0-1.31-.516-1.31-1.152V20.73c0-.636.586-1.153 1.31-1.153h21.657c.723 0 1.31.516 1.31 1.153v4.768c0 .636-.587 1.152-1.31 1.152zM3.084 24.345h19.041v-2.463H3.085v2.463z" fill="#CFFFFA"></path>
    <path d="M76.224 20.73H54.566v4.768h21.658V20.73z" fill="#fff"></path>
    <path d="M76.225 26.65H54.567c-.723 0-1.31-.516-1.31-1.152V20.73c0-.636.586-1.153 1.31-1.153h21.658c.722 0 1.308.516 1.308 1.153v4.768c0 .636-.586 1.152-1.308 1.152zm-20.35-2.305h19.041v-2.463h-19.04v2.463z" fill="#CFFFFA"></path>
  </symbol>

  <symbol viewBox="0 0 79 78" fill="none" xmlns="http://www.w3.org/2000/svg" id="restavration">
    <g clip-path="url(#clip0)">
      <path d="M5.57 16.214h68.003a4.12 4.12 0 0 1 4.107 4.107v8.5a4.121 4.121 0 0 1-4.107 4.108H5.57a4.121 4.121 0 0 1-4.107-4.108v-8.5a4.121 4.121 0 0 1 4.107-4.107z" stroke="#00EFD1" stroke-width="1.5"></path>
      <path d="M73.625 33.679v4.607H63.196V33.07a5.207 5.207 0 0 1 5.215-5.214 5.215 5.215 0 0 1 5.214 5.214v.608zm-23.084-.608v5.215H40.125v-5.344c.06-2.825 2.375-5.085 5.214-5.085a5.196 5.196 0 0 1 5.202 5.214zm-23.059 0v5.215H17.054V33.07a5.207 5.207 0 0 1 5.214-5.214 5.206 5.206 0 0 1 5.214 5.214zm24.166.25h.013v-.25a5.207 5.207 0 0 1 5.214-5.214 5.214 5.214 0 0 1 5.214 5.214v5.215H51.65V33.32zm-12.63-.25v5.215H28.589V33.07a5.207 5.207 0 0 1 5.215-5.214 5.22 5.22 0 0 1 5.214 5.085v.13zm-23.072 0v5.215H5.518V33.07a5.215 5.215 0 0 1 5.214-5.214 5.206 5.206 0 0 1 5.214 5.214z"
        fill="#fff" stroke="#01ECD2" stroke-width=".5"></path>
      <path d="M73.573 62.071H5.57a4.12 4.12 0 0 1-4.107-4.107v-8.5a4.122 4.122 0 0 1 4.107-4.107h68.003a4.122 4.122 0 0 1 4.107 4.107v8.5a4.12 4.12 0 0 1-4.107 4.107z" stroke="#00EFD1" stroke-width="1.5"></path>
      <path d="M5.518 44.607V40h10.428v5.214a5.207 5.207 0 0 1-5.214 5.215 5.215 5.215 0 0 1-5.214-5.215v-.607zm23.084.607V40h10.416v5.344c-.06 2.826-2.375 5.085-5.214 5.085a5.197 5.197 0 0 1-5.203-5.215zm23.058 0V40h10.43v5.214a5.207 5.207 0 0 1-5.215 5.215 5.207 5.207 0 0 1-5.214-5.215zm-24.166-.25h-.012v.25a5.207 5.207 0 0 1-5.214 5.215 5.215 5.215 0 0 1-5.214-5.215V40h10.44v4.964zm12.631.25V40h10.429v5.214a5.207 5.207 0 0 1-5.215 5.215 5.219 5.219 0 0 1-5.214-5.086v-.129zm23.071 0V40h10.429v5.214a5.215 5.215 0 0 1-5.214 5.215 5.207 5.207 0 0 1-5.215-5.215z"
        fill="#fff" stroke="#01ECD2" stroke-width=".5"></path>
    </g>
    <defs>
      <clipPath id="clip0">
        <path fill="#fff" transform="translate(.714 .286)" d="M0 0h77.714v77.714H0z"></path>
      </clipPath>
    </defs>
  </symbol>

  <symbol viewBox="0 0 71 71" fill="none" xmlns="http://www.w3.org/2000/svg" id="therapy">
    <g clip-path="url(#clip0)">
      <path d="M54.792 1.11c-8.696-2.79-15.964.331-19.296 2.254C32.164 1.441 24.897-1.68 16.198 1.11 4.678 4.804-.722 21.626 8.514 35.2c4.376 6.427 4.96 11.385 5.58 16.634.452 3.843.92 7.816 2.877 12.461 1.315 3.123 3.174 6.695 5.925 6.695h.076c2.212-.053 3.995-2.247 5.78-7.115.909-2.482 1.492-5.41 2.055-8.242 1.014-5.096 2.063-10.366 4.698-10.385h.014c2.607 0 3.654 5.272 4.666 10.37.563 2.84 1.146 5.778 2.056 8.257 1.787 4.876 3.57 7.073 5.78 7.125l.075.001c2.745 0 4.607-3.578 5.925-6.706 1.869-4.44 2.358-8.403 2.832-12.236.667-5.396 1.297-10.494 5.634-16.874C71.832 21.436 66.12 4.74 54.792 1.108zm5.401 32.514C55.48 40.56 54.778 46.232 54.1 51.718c-.47 3.813-.916 7.415-2.636 11.5-2.04 4.844-3.224 5.008-3.373 5.008h-.005c-.053 0-1.33-.09-3.241-5.307-.835-2.276-1.397-5.105-1.94-7.842-.61-3.071-1.185-5.973-2.134-8.237-1.215-2.898-2.98-4.367-5.247-4.367h-.038c-2.277.017-4.049 1.497-5.265 4.4-.95 2.264-1.525 5.156-2.134 8.218-.543 2.728-1.104 5.55-1.94 7.828-1.908 5.206-3.187 5.295-3.24 5.297-.125.002-1.322-.112-3.38-4.998-1.804-4.284-2.229-7.89-2.679-11.71-.63-5.35-1.282-10.881-6.04-17.87C2.48 21.403 7.5 6.813 17.046 3.75c8.3-2.662 15.151.795 17.711 2.406a1.386 1.386 0 0 0 1.477 0c2.56-1.61 9.413-5.067 17.712-2.406 9.734 3.12 14.405 17.871 6.247 29.873z"
        fill="#01ECD2"></path>
      <path d="M60.61 14.356a15.015 15.015 0 0 0-1.774-3.576 1.386 1.386 0 1 0-2.291 1.563 12.249 12.249 0 0 1 1.443 2.917c1.382 4.01 1.02 8.69-.99 12.84a1.387 1.387 0 0 0 2.496 1.21c2.328-4.805 2.735-10.255 1.116-14.954z" fill="#00EFD1"></path>
      <path d="M30.456 18.97l-5.582-1.861-1.861-5.583a1.387 1.387 0 0 0-2.631 0L18.52 17.11l-5.583 1.86a1.387 1.387 0 0 0 0 2.632l5.583 1.86 1.86 5.583a1.387 1.387 0 0 0 2.632 0l1.86-5.582 5.583-1.861a1.387 1.387 0 0 0 0-2.631zm-7.117 2.08c-.414.138-.74.463-.877.877l-.765 2.294-.764-2.294a1.387 1.387 0 0 0-.877-.877l-2.294-.765 2.294-.764c.414-.138.739-.463.877-.877l.764-2.294.765 2.294c.138.414.463.739.877.877l2.294.764-2.294.765z"
        fill="#CFFFFA"></path>
    </g>
    <defs>
      <clipPath id="clip0">
        <path fill="#fff" d="M0 0h71v71H0z"></path>
      </clipPath>
    </defs>
  </symbol>

  <symbol viewBox="0 0 78 79" fill="none" xmlns="http://www.w3.org/2000/svg" id="dent">
    <g clip-path="url(#clip0)" fill="#01ECD2">
      <path d="M45.446 7.258c-3.964 3.092-8.927 3.093-12.892 0l-1.529 1.96c2.422 1.89 5.18 2.89 7.975 2.89 2.794 0 5.553-1 7.975-2.89l-1.53-1.96z"></path>
      <path d="M51.038 42.672v-1.053a20.246 20.246 0 0 1 4.34-8.235 22.655 22.655 0 0 0 5.605-14.918v-7.158C60.983 5.296 56.09.405 50.079.405c-2.448 0-4.813.835-6.842 2.416-2.234 1.742-4.543 1.742-6.776 0-2.028-1.58-4.395-2.416-6.842-2.416-6.011 0-10.903 4.891-10.903 10.903v7.158a22.655 22.655 0 0 0 5.605 14.918 20.255 20.255 0 0 1 4.34 8.235v6.025h3.73v3.54l-1.42.202.352 2.46 1.067-.151v2.461l-1.42.203.353 2.46 1.067-.152v2.462l-1.42.202.353 2.46 1.067-.151v2.461l-1.42.203.353 2.46 1.067-.151v1.923l7.46 7.459 7.458-7.46v-4.053l1.42-.203-.352-2.46-1.068.152v-2.462l1.42-.202-.352-2.46-1.068.151v-2.461l1.42-.203-.352-2.46-1.068.151v-2.461l1.42-.203-.352-2.46-1.068.152v-1.409h3.73v-4.972zm-6.216 26.834l-4.973 4.973-4.972-4.973v-1.249l9.945-1.42v2.67zm0-5.18l-9.945 1.421v-2.461l9.945-1.421v2.461zm0-4.972l-9.945 1.42v-2.46l9.945-1.422v2.462zm0-4.973l-9.945 1.42v-2.46l9.945-1.422v2.462zm0-4.973l-9.945 1.421v-3.185h9.945v1.764zm4.034-9.221h-4.034v2.486h3.73v2.485H31.146v-2.486h11.189v-2.486H30.843a22.784 22.784 0 0 0-4.65-8.44 20.158 20.158 0 0 1-4.99-13.28v-7.158c0-4.64 3.774-8.417 8.416-8.417 1.89 0 3.726.654 5.312 1.89 3.13 2.441 6.707 2.441 9.836 0 1.586-1.236 3.424-1.89 5.312-1.89 4.642 0 8.418 3.777 8.418 8.417v7.158c0 4.886-1.773 9.602-4.992 13.281a22.767 22.767 0 0 0-4.65 8.44z"></path>
    </g>
    <defs>
      <clipPath id="clip0">
        <path fill="#fff" transform="translate(.143 .857)" d="M0 0h77.714v77.714H0z"></path>
      </clipPath>
    </defs>
  </symbol>


</svg>