<svg width="0" height="0" class="hidden">
  <symbol viewBox="0 0 42 42" fill="none" xmlns="http://www.w3.org/2000/svg" id="user-head">
    <path d="M32.31 33.003a7.15 7.15 0 0 0 .002-.254c-.033-6.162-5.063-11.202-11.225-11.249-6.277-.047-11.4 5.046-11.4 11.313l.003.261 22.62-.071zm0 0c-.061 3.736-2.668 6.958-6.301 7.875a20.484 20.484 0 0 1-10.019 0c-3.609-.91-6.215-4.096-6.3-7.804l22.62-.071z"
      fill="#01ECD2" stroke="#01ECD2"></path>
    <path d="M35.849 6.15A20.976 20.976 0 0 0 20.999 0 20.863 20.863 0 0 0 6.152 6.15 20.863 20.863 0 0 0 0 21a21.016 21.016 0 0 0 6.111 14.81c.284.285.765.027.691-.369a14.463 14.463 0 0 1-.24-2.629c0-5.99 3.668-11.14 8.876-13.322a.409.409 0 0 0 .128-.67 7.852 7.852 0 0 1-2.436-5.973c.142-4.1 3.46-7.432 7.559-7.59 4.483-.175 8.186 3.422 8.186 7.868 0 2.237-.938 4.26-2.441 5.694a.409.409 0 0 0 .128.67c5.208 2.183 8.875 7.333 8.875 13.323 0 .898-.082 1.777-.24 2.63-.073.395.407.653.691.367A21.015 21.015 0 0 0 42 21a20.859 20.859 0 0 0-6.15-14.849z"
      fill="#F5F8F7"></path>
    <path d="M25.75 13.125a4.75 4.75 0 1 1-9.5 0 4.75 4.75 0 0 1 9.5 0z" fill="#01ECD2" stroke="#01ECD2"></path>
  </symbol>
  
  <symbol viewBox="0 0 22 12" fill="none" xmlns="http://www.w3.org/2000/svg" id="arr-right">
    <path d="M21.53 6.53a.75.75 0 0 0 0-1.06L16.757.697a.75.75 0 0 0-1.06 1.06L19.939 6l-4.242 4.243a.75.75 0 0 0 1.06 1.06L21.53 6.53zM0 6.75h21v-1.5H0v1.5z" fill="#fff"></path>
  </symbol>

  <symbol viewBox="0 0 78 70" fill="none" xmlns="http://www.w3.org/2000/svg" id="ortodont">
    <path d="M26.14 1.659c-8.97 0-14.89 9.072-14.89 20.263 0 11.191 5.92 46.486 14.89 46.486 5.233 0 5.828-29.31 12.86-29.337 8.385.027 7.626 29.337 12.859 29.337 8.971 0 14.89-35.295 14.89-46.486 0-11.192-5.919-20.263-14.89-20.263-4.286 0-8.573 3.576-12.86 3.576-4.285 0-8.573-3.576-12.859-3.576z"
      fill="#fff"></path>
    <path d="M51.86 69.6c-3.447 0-4.487-5.203-6.063-13.08-1.294-6.469-3.25-16.245-6.802-16.256-2.66.01-4.837 9.601-6.14 15.333C30.825 64.54 29.51 69.6 26.142 69.6c-11.02 0-16.244-38.243-16.244-47.678C9.897 9.49 16.73.467 26.14.467c2.448 0 4.767.967 7.009 1.902 2.063.861 4.012 1.674 5.85 1.674 1.84 0 3.788-.813 5.852-1.674 2.241-.935 4.56-1.902 7.008-1.902 9.412 0 16.244 9.023 16.244 21.455 0 9.435-5.225 47.678-16.244 47.678zM38.993 37.88c5.826.017 7.678 9.274 9.469 18.227.846 4.233 2.126 10.63 3.44 11.115 2.314-.006 6.046-4.765 9.444-18.121 2.534-9.958 4.048-21.64 4.048-27.18 0-11.05-5.693-19.07-13.536-19.07-1.839 0-3.787.812-5.85 1.673-2.242.935-4.561 1.902-7.01 1.902-2.447 0-4.766-.967-7.008-1.902-2.063-.861-4.012-1.673-5.85-1.673-7.843 0-13.537 8.02-13.537 19.07 0 5.54 1.515 17.221 4.048 27.18 3.399 13.356 7.13 18.115 9.488 18.115 1.418-.453 3.072-7.736 4.061-12.087 2.014-8.861 3.914-17.231 8.793-17.25z"
      fill="#00EFD1"></path>
    <path d="M54.566 32.61H23.433c-.723 0-1.309-.516-1.309-1.152V14.77c0-.636.586-1.152 1.31-1.152h31.132c.723 0 1.31.516 1.31 1.152v16.687c0 .636-.587 1.153-1.31 1.153zm-29.824-2.305h28.516V15.923H24.742v14.382z" fill="#CFFFFA"></path>
    <path d="M23.433 20.73H1.775v4.768h21.658V20.73z" fill="#fff"></path>
    <path d="M23.433 26.65H1.776c-.723 0-1.31-.516-1.31-1.152V20.73c0-.636.586-1.153 1.31-1.153h21.657c.723 0 1.31.516 1.31 1.153v4.768c0 .636-.587 1.152-1.31 1.152zM3.084 24.345h19.041v-2.463H3.085v2.463z" fill="#CFFFFA"></path>
    <path d="M76.224 20.73H54.566v4.768h21.658V20.73z" fill="#fff"></path>
    <path d="M76.225 26.65H54.567c-.723 0-1.31-.516-1.31-1.152V20.73c0-.636.586-1.153 1.31-1.153h21.658c.722 0 1.308.516 1.308 1.153v4.768c0 .636-.586 1.152-1.308 1.152zm-20.35-2.305h19.041v-2.463h-19.04v2.463z" fill="#CFFFFA"></path>
  </symbol>

  <symbol viewBox="0 0 79 78" fill="none" xmlns="http://www.w3.org/2000/svg" id="restavration">
    <g clip-path="url(#clip0)">
      <path d="M5.57 16.214h68.003a4.12 4.12 0 0 1 4.107 4.107v8.5a4.121 4.121 0 0 1-4.107 4.108H5.57a4.121 4.121 0 0 1-4.107-4.108v-8.5a4.121 4.121 0 0 1 4.107-4.107z" stroke="#00EFD1" stroke-width="1.5"></path>
      <path d="M73.625 33.679v4.607H63.196V33.07a5.207 5.207 0 0 1 5.215-5.214 5.215 5.215 0 0 1 5.214 5.214v.608zm-23.084-.608v5.215H40.125v-5.344c.06-2.825 2.375-5.085 5.214-5.085a5.196 5.196 0 0 1 5.202 5.214zm-23.059 0v5.215H17.054V33.07a5.207 5.207 0 0 1 5.214-5.214 5.206 5.206 0 0 1 5.214 5.214zm24.166.25h.013v-.25a5.207 5.207 0 0 1 5.214-5.214 5.214 5.214 0 0 1 5.214 5.214v5.215H51.65V33.32zm-12.63-.25v5.215H28.589V33.07a5.207 5.207 0 0 1 5.215-5.214 5.22 5.22 0 0 1 5.214 5.085v.13zm-23.072 0v5.215H5.518V33.07a5.215 5.215 0 0 1 5.214-5.214 5.206 5.206 0 0 1 5.214 5.214z"
        fill="#fff" stroke="#01ECD2" stroke-width=".5"></path>
      <path d="M73.573 62.071H5.57a4.12 4.12 0 0 1-4.107-4.107v-8.5a4.122 4.122 0 0 1 4.107-4.107h68.003a4.122 4.122 0 0 1 4.107 4.107v8.5a4.12 4.12 0 0 1-4.107 4.107z" stroke="#00EFD1" stroke-width="1.5"></path>
      <path d="M5.518 44.607V40h10.428v5.214a5.207 5.207 0 0 1-5.214 5.215 5.215 5.215 0 0 1-5.214-5.215v-.607zm23.084.607V40h10.416v5.344c-.06 2.826-2.375 5.085-5.214 5.085a5.197 5.197 0 0 1-5.203-5.215zm23.058 0V40h10.43v5.214a5.207 5.207 0 0 1-5.215 5.215 5.207 5.207 0 0 1-5.214-5.215zm-24.166-.25h-.012v.25a5.207 5.207 0 0 1-5.214 5.215 5.215 5.215 0 0 1-5.214-5.215V40h10.44v4.964zm12.631.25V40h10.429v5.214a5.207 5.207 0 0 1-5.215 5.215 5.219 5.219 0 0 1-5.214-5.086v-.129zm23.071 0V40h10.429v5.214a5.215 5.215 0 0 1-5.214 5.215 5.207 5.207 0 0 1-5.215-5.215z"
        fill="#fff" stroke="#01ECD2" stroke-width=".5"></path>
    </g>
    <defs>
      <clipPath id="clip0">
        <path fill="#fff" transform="translate(.714 .286)" d="M0 0h77.714v77.714H0z"></path>
      </clipPath>
    </defs>
  </symbol>

  <symbol viewBox="0 0 71 71" fill="none" xmlns="http://www.w3.org/2000/svg" id="therapy">
    <g clip-path="url(#clip0)">
      <path d="M54.792 1.11c-8.696-2.79-15.964.331-19.296 2.254C32.164 1.441 24.897-1.68 16.198 1.11 4.678 4.804-.722 21.626 8.514 35.2c4.376 6.427 4.96 11.385 5.58 16.634.452 3.843.92 7.816 2.877 12.461 1.315 3.123 3.174 6.695 5.925 6.695h.076c2.212-.053 3.995-2.247 5.78-7.115.909-2.482 1.492-5.41 2.055-8.242 1.014-5.096 2.063-10.366 4.698-10.385h.014c2.607 0 3.654 5.272 4.666 10.37.563 2.84 1.146 5.778 2.056 8.257 1.787 4.876 3.57 7.073 5.78 7.125l.075.001c2.745 0 4.607-3.578 5.925-6.706 1.869-4.44 2.358-8.403 2.832-12.236.667-5.396 1.297-10.494 5.634-16.874C71.832 21.436 66.12 4.74 54.792 1.108zm5.401 32.514C55.48 40.56 54.778 46.232 54.1 51.718c-.47 3.813-.916 7.415-2.636 11.5-2.04 4.844-3.224 5.008-3.373 5.008h-.005c-.053 0-1.33-.09-3.241-5.307-.835-2.276-1.397-5.105-1.94-7.842-.61-3.071-1.185-5.973-2.134-8.237-1.215-2.898-2.98-4.367-5.247-4.367h-.038c-2.277.017-4.049 1.497-5.265 4.4-.95 2.264-1.525 5.156-2.134 8.218-.543 2.728-1.104 5.55-1.94 7.828-1.908 5.206-3.187 5.295-3.24 5.297-.125.002-1.322-.112-3.38-4.998-1.804-4.284-2.229-7.89-2.679-11.71-.63-5.35-1.282-10.881-6.04-17.87C2.48 21.403 7.5 6.813 17.046 3.75c8.3-2.662 15.151.795 17.711 2.406a1.386 1.386 0 0 0 1.477 0c2.56-1.61 9.413-5.067 17.712-2.406 9.734 3.12 14.405 17.871 6.247 29.873z"
        fill="#01ECD2"></path>
      <path d="M60.61 14.356a15.015 15.015 0 0 0-1.774-3.576 1.386 1.386 0 1 0-2.291 1.563 12.249 12.249 0 0 1 1.443 2.917c1.382 4.01 1.02 8.69-.99 12.84a1.387 1.387 0 0 0 2.496 1.21c2.328-4.805 2.735-10.255 1.116-14.954z" fill="#00EFD1"></path>
      <path d="M30.456 18.97l-5.582-1.861-1.861-5.583a1.387 1.387 0 0 0-2.631 0L18.52 17.11l-5.583 1.86a1.387 1.387 0 0 0 0 2.632l5.583 1.86 1.86 5.583a1.387 1.387 0 0 0 2.632 0l1.86-5.582 5.583-1.861a1.387 1.387 0 0 0 0-2.631zm-7.117 2.08c-.414.138-.74.463-.877.877l-.765 2.294-.764-2.294a1.387 1.387 0 0 0-.877-.877l-2.294-.765 2.294-.764c.414-.138.739-.463.877-.877l.764-2.294.765 2.294c.138.414.463.739.877.877l2.294.764-2.294.765z"
        fill="#CFFFFA"></path>
    </g>
    <defs>
      <clipPath id="clip0">
        <path fill="#fff" d="M0 0h71v71H0z"></path>
      </clipPath>
    </defs>
  </symbol>

  <symbol viewBox="0 0 78 79" fill="none" xmlns="http://www.w3.org/2000/svg" id="dent">
    <g clip-path="url(#clip0)" fill="#01ECD2">
      <path d="M45.446 7.258c-3.964 3.092-8.927 3.093-12.892 0l-1.529 1.96c2.422 1.89 5.18 2.89 7.975 2.89 2.794 0 5.553-1 7.975-2.89l-1.53-1.96z"></path>
      <path d="M51.038 42.672v-1.053a20.246 20.246 0 0 1 4.34-8.235 22.655 22.655 0 0 0 5.605-14.918v-7.158C60.983 5.296 56.09.405 50.079.405c-2.448 0-4.813.835-6.842 2.416-2.234 1.742-4.543 1.742-6.776 0-2.028-1.58-4.395-2.416-6.842-2.416-6.011 0-10.903 4.891-10.903 10.903v7.158a22.655 22.655 0 0 0 5.605 14.918 20.255 20.255 0 0 1 4.34 8.235v6.025h3.73v3.54l-1.42.202.352 2.46 1.067-.151v2.461l-1.42.203.353 2.46 1.067-.152v2.462l-1.42.202.353 2.46 1.067-.151v2.461l-1.42.203.353 2.46 1.067-.151v1.923l7.46 7.459 7.458-7.46v-4.053l1.42-.203-.352-2.46-1.068.152v-2.462l1.42-.202-.352-2.46-1.068.151v-2.461l1.42-.203-.352-2.46-1.068.151v-2.461l1.42-.203-.352-2.46-1.068.152v-1.409h3.73v-4.972zm-6.216 26.834l-4.973 4.973-4.972-4.973v-1.249l9.945-1.42v2.67zm0-5.18l-9.945 1.421v-2.461l9.945-1.421v2.461zm0-4.972l-9.945 1.42v-2.46l9.945-1.422v2.462zm0-4.973l-9.945 1.42v-2.46l9.945-1.422v2.462zm0-4.973l-9.945 1.421v-3.185h9.945v1.764zm4.034-9.221h-4.034v2.486h3.73v2.485H31.146v-2.486h11.189v-2.486H30.843a22.784 22.784 0 0 0-4.65-8.44 20.158 20.158 0 0 1-4.99-13.28v-7.158c0-4.64 3.774-8.417 8.416-8.417 1.89 0 3.726.654 5.312 1.89 3.13 2.441 6.707 2.441 9.836 0 1.586-1.236 3.424-1.89 5.312-1.89 4.642 0 8.418 3.777 8.418 8.417v7.158c0 4.886-1.773 9.602-4.992 13.281a22.767 22.767 0 0 0-4.65 8.44z"></path>
    </g>
    <defs>
      <clipPath id="clip0">
        <path fill="#fff" transform="translate(.143 .857)" d="M0 0h77.714v77.714H0z"></path>
      </clipPath>
    </defs>
  </symbol>

  <symbol viewBox="0 0 28 25" xmlns="http://www.w3.org/2000/svg" id="heart-select">
    <path d="M25.957 2.43A7.095 7.095 0 0 0 20.562 0c-2.95 0-4.818 1.762-5.865 3.24-.272.384-.503.768-.697 1.13a10.73 10.73 0 0 0-.697-1.13C12.256 1.762 10.388 0 7.437 0a7.095 7.095 0 0 0-5.394 2.43C.726 3.925 0 5.927 0 8.067c0 2.33.91 4.497 2.863 6.82 1.745 2.076 4.256 4.215 7.164 6.693 1.084.924 2.204 1.879 3.397 2.922l.036.032a.818.818 0 0 0 1.08 0l.036-.032c1.193-1.043 2.314-1.998 3.397-2.922 2.908-2.477 5.419-4.617 7.164-6.693C27.09 12.564 28 10.397 28 8.067c0-2.14-.726-4.142-2.043-5.637zM16.91 20.332c-.934.796-1.895 1.615-2.909 2.496-1.014-.881-1.975-1.7-2.91-2.497-5.69-4.849-9.45-8.053-9.45-12.264 0-1.74.58-3.357 1.634-4.552A5.476 5.476 0 0 1 7.437 1.64c2.25 0 3.704 1.385 4.527 2.548a9.722 9.722 0 0 1 1.256 2.497.82.82 0 0 0 1.56 0 9.723 9.723 0 0 1 1.256-2.497c.823-1.163 2.277-2.548 4.526-2.548 1.62 0 3.1.665 4.164 1.874C25.78 4.71 26.36 6.327 26.36 8.067c0 4.211-3.76 7.415-9.45 12.265z"
    ></path>
  </symbol>

  <symbol viewBox="0 0 12 12" fill="none" xmlns="http://www.w3.org/2000/svg" id="liked-heart">
    <path d="M11.048 1.701a3.227 3.227 0 0 0-2.4-1.045c-.693 0-1.327.22-1.886.651A3.858 3.858 0 0 0 6 2.103a3.856 3.856 0 0 0-.762-.796 3.018 3.018 0 0 0-1.886-.65c-.926 0-1.779.37-2.4 1.044C.338 2.367 0 3.277 0 4.263c0 1.014.378 1.943 1.19 2.923.727.877 1.77 1.766 2.98 2.797.412.351.88.75 1.366 1.175a.704.704 0 0 0 .928 0c.486-.425.954-.824 1.367-1.176 1.209-1.03 2.253-1.92 2.979-2.796.812-.98 1.19-1.909 1.19-2.923 0-.986-.338-1.896-.952-2.562z"
      fill="#01ECD2"></path>
  </symbol>

  <symbol viewBox="0 0 14 14" fill="none" xmlns="http://www.w3.org/2000/svg" id="sort-arr">
    <path d="M6.872 3.41L5.34 1.877a.437.437 0 0 0-.62 0L3.192 3.41a.437.437 0 1 0 .618.62l.785-.785v8.569a.438.438 0 0 0 .875 0v-8.57l.784.785a.435.435 0 0 0 .619 0 .437.437 0 0 0 0-.619zm3.938 6.562a.437.437 0 0 0-.62 0l-.784.784V2.187a.438.438 0 0 0-.875 0v8.57l-.784-.785a.437.437 0 1 0-.619.619l1.531 1.53a.436.436 0 0 0 .619 0l1.531-1.53a.437.437 0 0 0 0-.62z"
      fill="#01ECD2"></path>
  </symbol>

  <symbol viewBox="0 0 24 18" fill="none" xmlns="http://www.w3.org/2000/svg" id="arr-back">
    <path d="M18.039 5.47H1.692l3.437-3.852A.606.606 0 1 0 4.224.81L.354 5.149a1.392 1.392 0 0 0 0 1.855l3.87 4.338a.605.605 0 0 0 .856.05.606.606 0 0 0 .05-.857L1.691 6.683h16.347a4.754 4.754 0 0 1 4.748 4.748 4.754 4.754 0 0 1-4.748 4.749h-2.887a.606.606 0 0 0 0 1.212h2.887a5.968 5.968 0 0 0 5.96-5.96 5.968 5.968 0 0 0-5.96-5.962z"
      fill="#01ECD2"></path>
  </symbol>

  <symbol viewBox="0 0 15 8" fill="none" xmlns="http://www.w3.org/2000/svg" id="return-back">
    <path d="M.646 4.354a.5.5 0 0 1 0-.708L3.828.464a.5.5 0 1 1 .708.708L1.707 4l2.829 2.828a.5.5 0 1 1-.708.708L.646 4.354zM15 4.5H1v-1h14v1z" fill="#01ECD2"></path>
  </symbol>

  <symbol viewBox="0 0 40 40" fill="none" xmlns="http://www.w3.org/2000/svg" id="upload">
    <g clip-path="url(#clip0)" fill="#E4E4E4">
      <path d="M34.286 12.857h-7.143a1.429 1.429 0 1 0 0 2.857h7.143c.789 0 1.428.64 1.428 1.429v18.571c0 .79-.64 1.429-1.428 1.429H5.714c-.789 0-1.428-.64-1.428-1.429V17.143c0-.79.64-1.429 1.428-1.429h7.143a1.429 1.429 0 1 0 0-2.857H5.714a4.286 4.286 0 0 0-4.286 4.286v18.571A4.286 4.286 0 0 0 5.714 40h28.572a4.286 4.286 0 0 0 4.286-4.286V17.143a4.286 4.286 0 0 0-4.286-4.286z"></path>
      <path d="M28.153 7.561L21.01.418a1.428 1.428 0 0 0-2.02 0l-7.143 7.143a1.429 1.429 0 0 0 2.02 2.02l4.704-4.704V28.57a1.429 1.429 0 1 0 2.858 0V4.877l4.704 4.704a1.429 1.429 0 0 0 2.02-2.02z"></path>
    </g>
    <defs>
      <clipPath id="clip0">
        <path fill="#fff" d="M0 0h40v40H0z"></path>
      </clipPath>
    </defs>
  </symbol>

  <symbol viewBox="0 0 24 22" fill="none" xmlns="http://www.w3.org/2000/svg" id="message-svg">
    <path fill-rule="evenodd" clip-rule="evenodd" d="M1.793 21.566h1.7a6.301 6.301 0 0 0 4.513-1.922 16.22 16.22 0 0 0 4.034.513c2.807 0 5.277-.623 7.26-1.818a5.054 5.054 0 0 1-.807-1.152c-1.634.962-3.774 1.561-6.453 1.561-1.38 0-2.821-.204-4.06-.574l-.443-.133-.297.352a4.99 4.99 0 0 1-2.207 1.51 5.54 5.54 0 0 0 .561-2.299l.01-.41-.35-.211c-3.142-1.896-4.477-4.97-3.571-8.224.958-3.442 4.532-6.916 10.357-6.916 3.302 0 6.058.924 7.97 2.671 1.63 1.49 2.542 3.484 2.58 5.629.45-.093.922-.143 1.406-.143-.075-2.49-1.146-4.798-3.036-6.526-2.176-1.989-5.26-3.04-8.92-3.04-2.905 0-5.573.818-7.717 2.366C2.351 4.225.931 6.207.326 8.382c-.505 1.812-.422 3.655.24 5.329.662 1.675 1.9 3.136 3.591 4.246a4.069 4.069 0 0 1-1.162 2.406l-1.202 1.203z"
      fill="#01ECD2"></path>
  </symbol>

  <symbol viewBox="0 0 10 10" xmlns="http://www.w3.org/2000/svg" id="ellipse-status">
    <circle cx="5" cy="5" r="5"></circle>
  </symbol>

  <symbol viewBox="0 0 18 18" fill="none" xmlns="http://www.w3.org/2000/svg" id="clock-svg">
    <path d="M9 0a9 9 0 1 0 9 9 9.01 9.01 0 0 0-9-9zm0 16.714A7.714 7.714 0 1 1 16.714 9 7.723 7.723 0 0 1 9 16.714z" fill="#01ECD2"></path>
    <path d="M9 3.214a.643.643 0 0 0-.643.643v4.5h-4.5a.643.643 0 1 0 0 1.286H9A.643.643 0 0 0 9.643 9V3.857A.643.643 0 0 0 9 3.214z" fill="#01ECD2"></path>
  </symbol>

  <symbol viewBox="0 0 18 18" fill="none" xmlns="http://www.w3.org/2000/svg" id="search-svg">
    <path d="M17.89 16.83l-5.229-5.23a7.088 7.088 0 0 0 1.589-4.475A7.133 7.133 0 0 0 7.125 0C3.196 0 0 3.196 0 7.125s3.196 7.125 7.125 7.125a7.088 7.088 0 0 0 4.476-1.589l5.229 5.23a.375.375 0 0 0 .53 0l.53-.531a.375.375 0 0 0 0-.53zM7.125 12.75A5.631 5.631 0 0 1 1.5 7.125 5.631 5.631 0 0 1 7.125 1.5a5.631 5.631 0 0 1 5.625 5.625 5.631 5.631 0 0 1-5.625 5.625z"
      fill="#01ECD2"></path>
  </symbol>

  <symbol viewBox="0 0 18 18" xmlns="http://www.w3.org/2000/svg" id="edit-svg">
    <g clip-path="url(#clip0)">
      <path d="M17.484 10.956a.472.472 0 0 0-.472.472v4.19a1.416 1.416 0 0 1-1.415 1.414H2.359a1.417 1.417 0 0 1-1.415-1.415V3.323c0-.781.634-1.414 1.415-1.415h4.189a.472.472 0 1 0 0-.944h-4.19A2.362 2.362 0 0 0 0 3.323v12.294a2.362 2.362 0 0 0 2.359 2.359h13.238a2.361 2.361 0 0 0 2.358-2.359v-4.189a.472.472 0 0 0-.471-.472z"></path>
      <path d="M7.377 8.474l6.888-6.889 2.222 2.222L9.6 10.695 7.377 8.474zM6.253 11.82l2.455-.68-1.775-1.776-.68 2.455zM17.101.417a1.18 1.18 0 0 0-1.668 0l-.5.5 2.222 2.222.5-.5a1.18 1.18 0 0 0 0-1.668l-.554-.554z"></path>
    </g>
    <defs>
      <clipPath id="clip0">
        <path d="M0 0h18v18H0z"></path>
      </clipPath>
    </defs>
  </symbol>

  <symbol viewBox="0 0 22 12" fill="none" xmlns="http://www.w3.org/2000/svg" id="more-arr">
    <path d="M21.53 6.053a.75.75 0 0 0 0-1.06L16.757.22a.75.75 0 0 0-1.06 1.06l4.242 4.243-4.242 4.243a.75.75 0 0 0 1.06 1.06l4.773-4.773zM0 6.273h21v-1.5H0v1.5z" fill="#01ECD2"></path>
  </symbol>

  <symbol viewBox="0 0 20 20" fill="none" xmlns="http://www.w3.org/2000/svg" id="calendar-svg">
    <path d="M17.422 1.563h-1.797V.625a.625.625 0 1 0-1.25 0v.938h-8.75V.625a.625.625 0 1 0-1.25 0v.938H2.578A2.581 2.581 0 0 0 0 4.14v13.28A2.581 2.581 0 0 0 2.578 20h14.844A2.581 2.581 0 0 0 20 17.422V4.14a2.581 2.581 0 0 0-2.578-2.579zM2.578 2.813h1.797v.624a.625.625 0 1 0 1.25 0v-.624h8.75v.624a.625.625 0 1 0 1.25 0v-.624h1.797A1.33 1.33 0 0 1 18.75 4.14v1.484H1.25V4.141a1.33 1.33 0 0 1 1.328-1.329zM17.422 18.75H2.578a1.33 1.33 0 0 1-1.328-1.328V6.875h17.5v10.547a1.33 1.33 0 0 1-1.328 1.328z"
      fill="#01ECD2"></path>
  </symbol>

  <symbol viewBox="0 0 28 28" fill="none" xmlns="http://www.w3.org/2000/svg" id="location-svg">
    <g clip-path="url(#clip0)">
      <path d="M14.205.502c3.18.065 6.039 1.76 7.652 4.544a9.248 9.248 0 0 1 .12 9.14l-6.941 12.707-.002.002-.003.007A1.172 1.172 0 0 1 14 27.5a1.17 1.17 0 0 1-1.03-.597l-.001-.001-.004-.007-.001-.002-6.942-12.706a9.247 9.247 0 0 1 .121-9.141C7.756 2.262 10.615.567 13.795.502a9.34 9.34 0 0 1 .41 0zM9.562 8.75A4.442 4.442 0 0 0 14 13.188a4.442 4.442 0 0 0 4.437-4.438A4.442 4.442 0 0 0 14 4.313 4.442 4.442 0 0 0 9.562 8.75z"
        stroke="#01ECD2"></path>
    </g>
    <defs>
      <clipPath id="clip0">
        <path fill="#fff" d="M0 0h28v28H0z"></path>
      </clipPath>
    </defs>
  </symbol>

  <symbol viewBox="0 0 18 18" fill="none" xmlns="http://www.w3.org/2000/svg" id="phone-svg">
    <g clip-path="url(#clip0)">
      <path d="M16.556 11.815c-1.102 0-2.184-.172-3.21-.511-.511-.175-1.093-.04-1.427.3l-2.024 1.528c-2.347-1.253-3.792-2.698-5.028-5.027L6.35 6.133c.385-.384.523-.946.357-1.474a10.235 10.235 0 0 1-.513-3.215C6.194.648 5.546 0 4.75 0H1.444C.648 0 0 .648 0 1.444 0 10.574 7.427 18 16.556 18c.796 0 1.444-.648 1.444-1.444v-3.297c0-.796-.648-1.444-1.444-1.444zm.444 4.74c0 .246-.2.445-.444.445C7.978 17 1 10.022 1 1.444 1 1.2 1.2 1 1.444 1H4.75c.245 0 .444.2.444.444 0 1.21.19 2.397.562 3.521.052.166.01.338-.158.513l-1.72 2.276a.5.5 0 0 0-.046.528c1.403 2.758 3.107 4.462 5.884 5.885a.5.5 0 0 0 .53-.046l2.328-1.764a.441.441 0 0 1 .453-.105c1.133.373 2.32.563 3.529.563.245 0 .444.2.444.444v3.297z"
        fill="#01ECD2"></path>
    </g>
    <defs>
      <clipPath id="clip0">
        <path fill="#fff" d="M0 0h18v18H0z"></path>
      </clipPath>
    </defs>
  </symbol>

  <symbol viewBox="0 0 20 21" fill="none" xmlns="http://www.w3.org/2000/svg" id="rate-star">
    <path d="M19.948 7.987a1.071 1.071 0 0 0-.915-.763l-5.773-.547-2.282-5.575A1.063 1.063 0 0 0 10 .43c-.426 0-.81.265-.977.674L6.74 6.677l-5.773.547c-.425.041-.783.34-.915.763a1.14 1.14 0 0 0 .311 1.178l4.364 3.993-1.287 5.915c-.094.434.067.884.413 1.145a1.026 1.026 0 0 0 1.167.053L10 17.165l4.978 3.106c.364.229.823.208 1.168-.053.346-.262.508-.712.413-1.145l-1.286-5.915 4.363-3.992c.321-.293.444-.756.312-1.18z"
      fill="#01ECD2"></path>
  </symbol>

  <symbol viewBox="0 0 20 20" fill="none" xmlns="http://www.w3.org/2000/svg" id="settings">
    <g clip-path="url(#clip0)" fill="#01ECD2">
      <path d="M19.547 3.687h-7.948c-.19-.883-1.002-1.575-1.933-1.575a1.97 1.97 0 0 0-1.933 1.575H.43c-.24 0-.43.191-.43.43s.19.43.43.43h7.279c.19.883 1.002 1.575 1.933 1.575a1.97 1.97 0 0 0 1.933-1.575h7.972c.238 0 .43-.191.43-.43s-.192-.43-.43-.43zm-9.881 1.6c-.62 0-1.146-.502-1.146-1.146a1.13 1.13 0 0 1 1.146-1.146 1.146 1.146 0 0 1 0 2.291zm9.904 4.295H7.518C7.327 8.7 6.516 8.007 5.585 8.007a1.97 1.97 0 0 0-1.933 1.575H.43c-.24 0-.43.191-.43.43s.19.43.43.43h3.222c.19.883 1.002 1.575 1.933 1.575a1.97 1.97 0 0 0 1.933-1.575H19.57c.24 0 .43-.191.43-.43s-.19-.43-.43-.43zM5.585 11.158c-.62 0-1.146-.502-1.146-1.146 0-.62.525-1.146 1.146-1.146a1.146 1.146 0 0 1 0 2.292zm13.962 4.296h-3.748c-.19-.884-1.002-1.576-1.933-1.576a1.97 1.97 0 0 0-1.933 1.575H.43c-.24 0-.43.191-.43.43s.19.43.43.43h11.48c.19.883 1.002 1.575 1.932 1.575a1.97 1.97 0 0 0 1.934-1.575h3.77c.24 0 .43-.191.43-.43s-.19-.43-.43-.43zm-5.705 1.598a1.146 1.146 0 1 1 1.146-1.145 1.13 1.13 0 0 1-1.146 1.145z"></path>
    </g>
    <defs>
      <clipPath id="clip0">
        <path fill="#fff" d="M0 0h20v20H0z"></path>
      </clipPath>
    </defs>
  </symbol>

  <symbol viewBox="0 0 14 14" fill="none" xmlns="http://www.w3.org/2000/svg" id="message-status">
    <g clip-path="url(#clip0)">
      <path d="M0 7.717l3.364 3.364.853-.852L.852 6.865 0 7.717zm10.593-3.865L9.741 3l-3.82 3.822.853.853 3.82-3.823z" fill="#01ECD2"></path>
      <path d="M13.15 3L6.772 9.376 4.26 6.864l-.852.853L6.77 11.08 14 3.852 13.15 3z" fill="#AAAFBE"></path>
    </g>
    <defs>
      <clipPath id="clip0">
        <path fill="#fff" d="M0 0h14v14H0z"></path>
      </clipPath>
    </defs>
  </symbol>

  <symbol viewBox="0 0 20 18" fill="none" xmlns="http://www.w3.org/2000/svg" id="message-btn">
    <path d="M2.911 17.805H1.494l1.002-1.002c.54-.54.878-1.243.969-2.006-1.41-.925-2.441-2.142-2.993-3.538-.552-1.395-.621-2.93-.2-4.441.504-1.812 1.687-3.464 3.33-4.651C5.39.877 7.613.195 10.034.195c3.05 0 5.62.876 7.434 2.534C19.1 4.222 20 6.236 20 8.4a7.55 7.55 0 0 1-.636 3.041 7.823 7.823 0 0 1-1.902 2.646c-1.816 1.664-4.384 2.544-7.429 2.544-1.13 0-2.309-.15-3.362-.428a5.252 5.252 0 0 1-3.76 1.602zM10.033 1.37c-4.854 0-7.832 2.895-8.63 5.764-.755 2.71.357 5.273 2.975 6.853l.293.176-.01.342a4.622 4.622 0 0 1-.467 1.915 4.158 4.158 0 0 0 1.84-1.258l.247-.293.368.11c1.033.309 2.235.479 3.384.479 6.042 0 8.793-3.658 8.793-7.057 0-1.83-.764-3.537-2.151-4.805-1.594-1.456-3.89-2.226-6.642-2.226z"
      fill="#01ECD2"></path>
  </symbol>

  <symbol viewBox="0 0 20 18" fill="none" xmlns="http://www.w3.org/2000/svg" id="error">
    <path d="M19.81 15.582L11.22.704A1.394 1.394 0 0 0 10 0c-.509 0-.965.263-1.22.704L.19 15.582c-.254.44-.254.967 0 1.408.255.44.711.704 1.22.704h17.18c.509 0 .965-.263 1.22-.704.254-.44.254-.967 0-1.408zm-1.017.821a.227.227 0 0 1-.203.117H1.41a.227.227 0 0 1-.203-.117.227.227 0 0 1 0-.234L9.797 1.29A.227.227 0 0 1 10 1.173c.05 0 .144.016.203.118l8.59 14.878a.227.227 0 0 1 0 .234z"
      fill="#01ECD2"></path>
    <path d="M10.587 5.335H9.414v6.258h1.173V5.335zM10 14.33a.782.782 0 1 0 0-1.564.782.782 0 0 0 0 1.565z" fill="#01ECD2"></path>
  </symbol>

  <symbol viewBox="0 0 16 16" fill="none" xmlns="http://www.w3.org/2000/svg" id="comments-doc">
    <path d="M10.28 3.725c-1.081 0-1.778.473-2.172.87-.062.064-.12.126-.17.188a3.024 3.024 0 0 0-.172-.187c-.394-.398-1.09-.871-2.171-.871-1.658 0-2.811 1.428-2.811 3.11 0 2.288 2.276 3.864 4.84 6.17l.313.283.314-.282c2.712-2.441 4.84-3.928 4.84-6.172 0-1.678-1.151-3.109-2.811-3.109zm-2.343 8.304C5.45 9.812 3.721 8.513 3.721 6.834c0-1.238.805-2.172 1.874-2.172C7 4.662 7.472 5.757 7.5 5.827l.427 1.164.448-1.166c.004-.011.463-1.163 1.905-1.163 1.068 0 1.874.934 1.874 2.172 0 1.707-1.822 3.061-4.217 5.195z"
      fill="#01ECD2"></path>
    <path d="M15.012 15.168c-.57-.476-.886-1.188-.894-2.005A8 8 0 0 0 15.99 8c0-4.403-3.593-7.996-7.995-7.996S0 3.598 0 8c0 4.403 3.593 7.996 7.996 7.996a7.884 7.884 0 0 0 3.333-.73 8.19 8.19 0 0 0 3.382.73H16l-.988-.828zm-3.69-.94c-.142.052-1.393.83-3.326.83A7.067 7.067 0 0 1 .937 8 7.067 7.067 0 0 1 7.996.941 7.067 7.067 0 0 1 15.054 8a7.06 7.06 0 0 1-1.756 4.68l-.118.132c.018.17-.108 1.155.473 2.17-1.314-.193-2.193-.7-2.33-.755z"
      fill="#01ECD2"></path>
  </symbol>

  <symbol viewBox="0 0 14 14" fill="none" xmlns="http://www.w3.org/2000/svg" id="come-back">
    <g clip-path="url(#clip0)">
      <path d="M10.523 4.941H.987l2.005-2.247a.354.354 0 1 0-.528-.471L.206 4.753a.812.812 0 0 0 0 1.082l2.258 2.531a.353.353 0 0 0 .5.029.354.354 0 0 0 .028-.5L.987 5.649h9.536a2.773 2.773 0 0 1 2.77 2.77 2.773 2.773 0 0 1-2.77 2.77H8.839a.354.354 0 1 0 0 .707h1.684A3.481 3.481 0 0 0 14 8.418a3.481 3.481 0 0 0-3.477-3.477z"
        fill="#01ECD2"></path>
    </g>
    <defs>
      <clipPath id="clip0">
        <path fill="#fff" d="M0 0h14v14H0z"></path>
      </clipPath>
    </defs>
  </symbol>

  <symbol viewBox="0 0 68 68" fill="none" xmlns="http://www.w3.org/2000/svg" id="tooth">
    <g clip-path="url(#clip0)" fill="#01ECD2">
      <path d="M52.477 1.062c-8.329-2.67-15.29.318-18.481 2.16-3.191-1.842-10.151-4.831-18.482-2.16C4.48 4.602-.692 20.712 8.154 33.711c4.192 6.156 4.751 10.904 5.344 15.932.434 3.68.882 7.486 2.755 11.934 1.26 2.991 3.041 6.413 5.676 6.413l.072-.001c2.119-.05 3.826-2.152 5.536-6.814.87-2.377 1.429-5.181 1.968-7.893.972-4.882 1.976-9.93 4.5-9.947h.014c2.496 0 3.499 5.05 4.468 9.932.54 2.72 1.098 5.534 1.969 7.908 1.711 4.67 3.419 6.774 5.536 6.824l.071.001c2.63 0 4.413-3.427 5.675-6.423 1.79-4.251 2.26-8.047 2.713-11.718.638-5.169 1.242-10.05 5.396-16.162 8.95-13.167 3.478-29.157-7.37-32.635zm5.173 31.142c-4.515 6.642-5.186 12.075-5.836 17.33-.45 3.651-.877 7.1-2.524 11.012-1.955 4.64-3.088 4.798-3.231 4.798h-.005c-.05-.001-1.273-.087-3.104-5.084-.8-2.18-1.338-4.89-1.858-7.51-.583-2.942-1.135-5.72-2.044-7.89-1.163-2.774-2.853-4.181-5.025-4.181h-.036c-2.181.015-3.878 1.433-5.043 4.214-.909 2.167-1.46 4.938-2.044 7.87-.52 2.613-1.057 5.315-1.857 7.498-1.828 4.985-3.053 5.071-3.104 5.072-.12.002-1.266-.107-3.237-4.786-1.728-4.103-2.135-7.557-2.566-11.215-.604-5.124-1.228-10.422-5.785-17.115C2.376 20.498 7.183 6.525 16.325 3.592c7.95-2.55 14.512.762 16.964 2.305.432.272.982.272 1.414 0 2.453-1.542 9.015-4.853 16.963-2.305C60.99 6.581 65.463 20.71 57.65 32.204z"></path>
      <path d="M58.049 13.75a14.38 14.38 0 0 0-1.7-3.425 1.328 1.328 0 1 0-2.194 1.497 11.731 11.731 0 0 1 1.382 2.793c1.324 3.841.979 8.324-.947 12.297a1.328 1.328 0 0 0 2.39 1.159c2.23-4.601 2.62-9.821 1.069-14.321zM29.17 18.168l-5.347-1.782-1.782-5.346a1.328 1.328 0 0 0-2.52 0l-1.783 5.346-5.346 1.782a1.328 1.328 0 0 0 0 2.52l5.346 1.783 1.783 5.346a1.328 1.328 0 0 0 2.52 0l1.782-5.346 5.346-1.783a1.328 1.328 0 0 0 0-2.52zm-6.817 1.992a1.328 1.328 0 0 0-.84.84l-.732 2.197L20.048 21a1.328 1.328 0 0 0-.84-.84l-2.196-.732 2.196-.732c.397-.132.708-.443.84-.84l.733-2.197.732 2.197c.132.397.443.708.84.84l2.197.732-2.197.732z"></path>
    </g>
    <defs>
      <clipPath id="clip0">
        <path fill="#fff" d="M0 0h68v68H0z"></path>
      </clipPath>
    </defs>
  </symbol>

  <symbol viewBox="0 0 10 20" fill="none" xmlns="http://www.w3.org/2000/svg" id="calendar-arr">
    <path d="M1.358 10.335l-.316-.34.316-.34L9.42.968a.314.314 0 0 0-.002-.4A.19.19 0 0 0 9.28.5a.185.185 0 0 0-.136.06L.576 9.791a.313.313 0 0 0 0 .408l8.571 9.236a.188.188 0 0 0 .139.065.188.188 0 0 0 .138-.065.313.313 0 0 0 0-.408l-8.066-8.692z" fill="#AAAFBE"
      stroke="#E5E5E5"></path>
  </symbol>

  <symbol viewBox="0 0 14 14" xmlns="http://www.w3.org/2000/svg" id="delete-btn">
    <g clip-path="url(#clip0)">
      <path d="M7.773 7L13.84.935a.547.547 0 1 0-.774-.773L7 6.227.933.161A.547.547 0 1 0 .16.934l6.066 6.067L.16 13.067a.547.547 0 1 0 .773.774L7 7.774l6.066 6.067a.545.545 0 0 0 .774 0 .547.547 0 0 0 0-.774L7.773 7.001z"></path>
    </g>
    <defs>
      <clipPath id="clip0">
        <path d="M0 0h14v14H0z"></path>
      </clipPath>
    </defs>
  </symbol>

  <symbol viewBox="0 0 14 33" fill="none" xmlns="http://www.w3.org/2000/svg" id="slide-arr">
    <path d="M1.909 16.207l-.227.3.227.301 10.796 14.337c.228.317.228.857-.002 1.173-.106.146-.213.18-.278.181-.065.002-.167-.026-.273-.16L.679 17.104a1.006 1.006 0 0 1-.179-.597c0-.235.069-.45.18-.597L12.154.673C12.26.53 12.366.5 12.43.5c.065 0 .17.031.277.173.11.147.18.36.18.597 0 .235-.07.45-.18.596l-10.8 14.34z"
      fill="#E5E5E5" stroke="#E5E5E5"></path>
  </symbol>

  <symbol viewBox="0 0 32 34" fill="none" xmlns="http://www.w3.org/2000/svg" id="telegram-popup">
    <rect y=".23" width="32" height="32.838" rx="16" fill="#419FD9"></rect>
    <path fill-rule="evenodd" clip-rule="evenodd" d="M19.557 24.78c1.118.502 1.537-.55 1.537-.55l2.96-15.254c-.024-1.028-1.375-.407-1.375-.407L6.113 15.24s-.792.288-.722.79c.07.502.699.741.699.741l4.17 1.435s1.259 4.231 1.515 5.044c.233.79.443.813.443.813.233.096.442-.072.442-.072l2.703-2.51 4.194 3.3zm.722-13.103s.582-.358.56 0c0 0 .092.048-.21.383-.28.287-6.874 6.36-7.759 7.173a.253.253 0 0 0-.116.215l-.257 2.247c-.046.24-.35.263-.42.048l-1.094-3.682a.357.357 0 0 1 .14-.406l9.156-5.978z"
      fill="#fff"></path>
  </symbol>

  <symbol viewBox="0 0 32 34" fill="none" xmlns="http://www.w3.org/2000/svg" id="viber-popup">
    <rect y=".23" width="32" height="32.838" rx="16" fill="#675DA9"></rect>
    <path d="M23.836 8.566c-.53-.5-2.672-2.098-7.448-2.12 0 0-5.63-.35-8.375 2.234-1.528 1.568-2.065 3.859-2.121 6.706-.055 2.842-.128 8.173 4.879 9.618h.004l-.004 2.203s-.03.894.542 1.073c.691.22 1.1-.46 1.762-1.191.363-.403.863-.99 1.243-1.441 3.423.293 6.056-.381 6.355-.482.691-.232 4.605-.744 5.241-6.075.658-5.484-.32-8.957-2.078-10.525zm.58 10.14c-.538 4.45-3.709 4.73-4.294 4.923-.247.083-2.56.674-5.472.477 0 0-2.168 2.685-2.842 3.381-.107.11-.23.154-.312.132-.115-.03-.15-.171-.145-.377 0-.298.017-3.666.017-3.666-.004 0-.004 0 0 0-4.238-1.204-3.99-5.742-3.944-8.116.047-2.374.483-4.323 1.776-5.633 2.318-2.154 7.102-1.835 7.102-1.835 4.038.018 5.971 1.266 6.42 1.682 1.49 1.314 2.249 4.446 1.694 9.032z"
      fill="#fff"></path>
    <path d="M18.355 15.543a.274.274 0 0 1-.268-.262c-.047-.942-.479-1.402-1.358-1.45a.276.276 0 0 1-.256-.294.274.274 0 0 1 .286-.263c1.161.066 1.81.75 1.87 1.976a.27.27 0 0 1-.257.289c-.008.004-.012.004-.017.004z" fill="#fff"></path>
    <path d="M19.738 16.017h-.004a.275.275 0 0 1-.264-.285c.02-.946-.244-1.713-.807-2.343-.56-.631-1.332-.973-2.352-1.047a.274.274 0 0 1-.247-.298.27.27 0 0 1 .29-.254c1.152.087 2.061.5 2.71 1.226.653.732.969 1.647.948 2.729a.277.277 0 0 1-.274.272z"
      fill="#fff"></path>
    <path d="M21.155 16.586a.271.271 0 0 1-.269-.276c-.013-1.695-.486-2.987-1.451-3.955-.952-.955-2.16-1.441-3.581-1.455a.275.275 0 0 1-.269-.28c0-.153.124-.276.269-.276 1.566.013 2.898.552 3.952 1.612 1.059 1.06 1.6 2.523 1.618 4.345a.27.27 0 0 1-.269.285c.004 0 .004 0 0 0zm-4.362 2.387s.38.035.585-.224l.396-.512c.193-.254.658-.416 1.11-.158.252.145.709.434.99.648.303.228.918.754.922.758.295.254.363.627.163 1.025v.009a4.253 4.253 0 0 1-.828 1.047c-.005 0-.005.004-.009.004-.286.245-.568.386-.84.416-.035.009-.073.009-.125.009a1.14 1.14 0 0 1-.358-.057l-.009-.013c-.427-.123-1.135-.43-2.313-1.1a13.717 13.717 0 0 1-1.946-1.318 9.853 9.853 0 0 1-.875-.797l-.03-.03a8.545 8.545 0 0 1-.03-.031l-.03-.031a10.902 10.902 0 0 1-.807-.929 13.873 13.873 0 0 1-1.284-1.997c-.653-1.213-.952-1.94-1.072-2.374l-.013-.008a1.223 1.223 0 0 1-.055-.368c0-.053 0-.092.008-.127.035-.285.171-.57.406-.863 0-.005.004-.005.004-.01a4.123 4.123 0 0 1 1.02-.849h.009c.384-.206.747-.136.999.167 0 0 .516.635.738.946.21.293.49.758.632 1.016.252.464.094.942-.154 1.139l-.5.407c-.251.21-.217.6-.217.6s.738 2.882 3.513 3.605z"
      fill="#fff"></path>
  </symbol>

  <symbol viewBox="0 0 32 34" fill="none" xmlns="http://www.w3.org/2000/svg" id="instagram-popup">
    <rect y=".23" width="32" height="32.838" rx="16" fill="#262626"></rect>
    <path d="M12.667 16.65c0-1.89 1.492-3.422 3.333-3.422 1.84 0 3.334 1.532 3.334 3.421 0 1.89-1.493 3.421-3.334 3.421-1.84 0-3.333-1.532-3.333-3.42zm-1.802 0c0 2.91 2.299 5.269 5.135 5.269s5.135-2.36 5.135-5.27c0-2.91-2.299-5.27-5.135-5.27s-5.135 2.36-5.135 5.27zm9.273-5.48c0 .245.07.483.202.685.132.203.32.36.538.454a1.172 1.172 0 0 0 1.308-.266c.168-.173.283-.392.329-.63a1.262 1.262 0 0 0-.068-.712 1.225 1.225 0 0 0-.442-.553 1.178 1.178 0 0 0-.666-.208c-.319 0-.624.13-.849.36a1.248 1.248 0 0 0-.352.87zM11.96 25.003c-.975-.046-1.505-.212-1.857-.353a3.101 3.101 0 0 1-1.15-.768c-.35-.358-.567-.7-.748-1.18-.138-.36-.3-.904-.344-1.905-.049-1.081-.058-1.406-.058-4.147 0-2.74.01-3.064.058-4.147.044-1 .208-1.543.344-1.905.181-.48.398-.821.748-1.18a3.06 3.06 0 0 1 1.15-.768c.352-.141.882-.308 1.857-.353 1.054-.05 1.37-.06 4.04-.06s2.986.01 4.041.06c.975.045 1.504.213 1.857.353.467.185.8.408 1.15.767.35.36.567.701.749 1.18.137.362.3.906.343 1.906.049 1.083.059 1.407.059 4.147s-.01 3.065-.059 4.147c-.044 1-.207 1.544-.343 1.906a3.19 3.19 0 0 1-.748 1.18c-.35.358-.684.58-1.15.767-.353.14-.883.307-1.858.353-1.054.05-1.37.06-4.041.06-2.67 0-2.986-.01-4.04-.06zM11.877 6.45c-1.064.05-1.792.223-2.427.476A4.894 4.894 0 0 0 7.678 8.11a5.03 5.03 0 0 0-1.153 1.818c-.247.652-.416 1.398-.464 2.49C6.01 13.513 6 13.862 6 16.65s.011 3.137.06 4.23c.049 1.093.218 1.84.465 2.492a5.03 5.03 0 0 0 1.153 1.818c.557.57 1.114.92 1.772 1.183.636.254 1.363.427 2.427.477 1.067.05 1.407.062 4.123.062s3.057-.012 4.123-.062c1.064-.05 1.791-.223 2.427-.477a4.905 4.905 0 0 0 1.771-1.183 5.041 5.041 0 0 0 1.154-1.818c.247-.653.417-1.399.464-2.491.049-1.095.06-1.444.06-4.23 0-2.788-.011-3.137-.06-4.232-.048-1.092-.217-1.838-.464-2.49a5.062 5.062 0 0 0-1.154-1.818 4.883 4.883 0 0 0-1.77-1.184c-.637-.253-1.364-.428-2.427-.476-1.067-.05-1.407-.063-4.123-.063s-3.057.012-4.124.063z"
      fill="#fff"></path>
  </symbol>

  <symbol viewBox="0 0 32 34" fill="none" xmlns="http://www.w3.org/2000/svg" id="WhatsApp-popup">
    <rect y=".23" width="32" height="32.838" rx="16" fill="#0DC143"></rect>
    <path d="M23.168 9.269a8.968 8.968 0 0 0-6.508-2.796c-5.146 0-9.283 4.297-9.233 9.526 0 1.656.454 3.261 1.21 4.711l-1.31 4.918 4.893-1.294a8.826 8.826 0 0 0 4.39 1.139c5.095 0 9.232-4.297 9.232-9.526 0-2.537-.96-4.918-2.674-6.678zM16.66 23.868c-1.363 0-2.725-.362-3.885-1.087l-.303-.155-2.926.776.757-2.95-.202-.312c-2.22-3.675-1.16-8.542 2.472-10.82 3.633-2.278 8.324-1.19 10.544 2.537 2.22 3.728 1.16 8.542-2.472 10.82a7.22 7.22 0 0 1-3.985 1.191zm4.44-5.747l-.556-.258s-.807-.363-1.311-.622c-.051 0-.101-.052-.152-.052-.151 0-.252.052-.353.104 0 0-.05.052-.757.88a.276.276 0 0 1-.252.155h-.05a.38.38 0 0 1-.202-.103l-.252-.104c-.555-.258-1.06-.57-1.464-.983-.1-.104-.252-.207-.353-.31-.353-.363-.706-.777-.958-1.243l-.05-.104c-.051-.052-.051-.104-.102-.207 0-.103 0-.207.05-.259 0 0 .203-.259.354-.414.1-.104.151-.259.252-.362.101-.156.151-.363.101-.518-.05-.259-.656-1.657-.807-1.967-.101-.156-.202-.207-.353-.26h-.555c-.101 0-.202.053-.303.053l-.05.051c-.101.052-.202.156-.303.207-.101.104-.151.207-.252.311a2.683 2.683 0 0 0-.555 1.605c0 .414.1.828.252 1.19l.05.156a8.62 8.62 0 0 0 1.867 2.64l.202.207c.151.156.303.26.404.414 1.059.932 2.27 1.605 3.632 1.968.151.052.353.052.504.103h.505c.252 0 .555-.103.757-.207.151-.103.252-.103.353-.207l.1-.103c.102-.104.203-.156.303-.26.101-.103.202-.206.253-.31.1-.207.151-.466.201-.725v-.362s-.05-.052-.15-.104z"
      fill="#fff"></path>
  </symbol>

  <symbol viewBox="0 0 32 33" fill="none" xmlns="http://www.w3.org/2000/svg" id="copy-popup">
    <path d="M16 .141c-8.822 0-16 7.366-16 16.42 0 9.053 7.178 16.418 16 16.418 8.823 0 16-7.365 16-16.419C32 7.507 24.823.141 16 .141zm-.276 22.932l-1.104 1.133a4.213 4.213 0 0 1-6.07 0c-1.674-1.718-1.674-4.512 0-6.23l3.31-3.398a4.22 4.22 0 0 1 6.072 0c.457.47.457 1.23 0 1.699a1.15 1.15 0 0 1-1.656 0 1.918 1.918 0 0 0-2.76 0l-3.31 3.398a2.04 2.04 0 0 0 0 2.832c.76.78 1.998.78 2.758 0l1.104-1.133a1.15 1.15 0 0 1 1.656 0c.457.47.457 1.23 0 1.699zm7.727-7.929l-3.312 3.398a4.22 4.22 0 0 1-6.07 0 1.224 1.224 0 0 1 0-1.699 1.15 1.15 0 0 1 1.655 0c.76.781 1.999.781 2.76 0l3.31-3.398c.762-.78.762-2.05 0-2.831a1.919 1.919 0 0 0-2.759 0l-1.103 1.132a1.15 1.15 0 0 1-1.656 0 1.224 1.224 0 0 1 0-1.699l1.104-1.132a4.213 4.213 0 0 1 6.07 0c1.674 1.717 1.674 4.512 0 6.23z"
      fill="#01ECD2"></path>
  </symbol>

  <symbol viewBox="0 0 20 20" fill="none" xmlns="http://www.w3.org/2000/svg" id="share-arr">
    <path d="M19.993 9.995L10.878 0v5.987H9.82a9.755 9.755 0 0 0-6.944 2.876A9.755 9.755 0 0 0 0 15.807V20l1.75-1.917a12.552 12.552 0 0 1 9.128-4.08v5.986l9.115-9.994zM1.172 16.987v-1.18c0-2.31.9-4.482 2.533-6.115A8.591 8.591 0 0 1 9.82 7.159h2.23V3.024l6.357 6.97-6.357 6.971v-4.134H11c-3.7 0-7.257 1.51-9.827 4.156z"
      fill="#01ECD2"></path>
  </symbol>

  <symbol fill="none" xmlns="http://www.w3.org/2000/svg" viewBox="0 0 33 21" id="open-arr">
    <path d="M16.207 1.909l.3-.227.301.227 14.337 10.796c.317.228.857.227 1.173-.002.146-.107.18-.213.181-.279.002-.064-.026-.166-.16-.272L17.104.678a1.006 1.006 0 00-.597-.18c-.235 0-.45.07-.597.18 0 0 0 0 0 0L.673 12.154c-.142.107-.173.212-.173.277 0 .065.031.17.173.277.147.11.36.18.597.18.235 0 .45-.07.596-.18 0 0 0 0 0 0l14.34-10.8z" fill="#01ECD2" stroke="#01ECD2"></path>
    <path d="M16.207 8.908l.3-.227.301.227 14.337 10.796c.317.228.857.227 1.173-.002.146-.107.18-.213.181-.279.002-.064-.026-.166-.16-.272L17.104 7.678a1.006 1.006 0 00-.597-.18c-.235 0-.45.07-.597.18 0 0 0 0 0 0L.673 19.153C.53 19.26.5 19.365.5 19.43c0 .065.031.17.173.277.147.11.36.18.597.18.235 0 .45-.07.596-.18 0 0 0 0 0 0l14.34-10.8z" fill="#01ECD2" stroke="#01ECD2"></path>
  </symbol>

  <symbol xmlns="http://www.w3.org/2000/svg" viewBox="0 -10 490.667 490" id="login-icon">
    <path d="M325.332 251H16c-8.832 0-16-7.168-16-16s7.168-16 16-16h309.332c8.832 0 16 7.168 16 16s-7.168 16-16 16zm0 0"></path>
    <path d="M240 336.332c-4.098 0-8.191-1.555-11.309-4.691-6.25-6.25-6.25-16.383 0-22.637l74.028-74.024-74.028-74.027c-6.25-6.25-6.25-16.387 0-22.637 6.254-6.25 16.387-6.25 22.637 0l85.332 85.336c6.25 6.25 6.25 16.383 0 22.633l-85.332 85.332A15.88 15.88 0 01240 336.332zm0 0"></path>
    <path d="M256 469.668c-97.09 0-182.805-58.41-218.41-148.824-3.242-8.192.808-17.492 9.023-20.735 8.192-3.199 17.516.79 20.758 9.047C98.113 387.215 172.161 437.668 256 437.668c111.742 0 202.668-90.926 202.668-202.668S367.742 32.332 256 32.332c-83.84 0-157.887 50.453-188.629 128.512-3.266 8.258-12.566 12.246-20.758 9.047-8.215-3.243-12.265-12.543-9.023-20.735C73.195 58.742 158.91.332 256 .332 385.387.332 490.668 105.613 490.668 235S385.387 469.668 256 469.668zm0 0"></path>
  </symbol>
</svg>