<svg width="0" height="0" class="hidden">
  <symbol viewBox="0 0 42 42" fill="none" xmlns="http://www.w3.org/2000/svg" id="user-head">
    <path d="M32.31 33.003a7.15 7.15 0 0 0 .002-.254c-.033-6.162-5.063-11.202-11.225-11.249-6.277-.047-11.4 5.046-11.4 11.313l.003.261 22.62-.071zm0 0c-.061 3.736-2.668 6.958-6.301 7.875a20.484 20.484 0 0 1-10.019 0c-3.609-.91-6.215-4.096-6.3-7.804l22.62-.071z"
      fill="#01ECD2" stroke="#01ECD2"></path>
    <path d="M35.849 6.15A20.976 20.976 0 0 0 20.999 0 20.863 20.863 0 0 0 6.152 6.15 20.863 20.863 0 0 0 0 21a21.016 21.016 0 0 0 6.111 14.81c.284.285.765.027.691-.369a14.463 14.463 0 0 1-.24-2.629c0-5.99 3.668-11.14 8.876-13.322a.409.409 0 0 0 .128-.67 7.852 7.852 0 0 1-2.436-5.973c.142-4.1 3.46-7.432 7.559-7.59 4.483-.175 8.186 3.422 8.186 7.868 0 2.237-.938 4.26-2.441 5.694a.409.409 0 0 0 .128.67c5.208 2.183 8.875 7.333 8.875 13.323 0 .898-.082 1.777-.24 2.63-.073.395.407.653.691.367A21.015 21.015 0 0 0 42 21a20.859 20.859 0 0 0-6.15-14.849z"
      fill="#F5F8F7"></path>
    <path d="M25.75 13.125a4.75 4.75 0 1 1-9.5 0 4.75 4.75 0 0 1 9.5 0z" fill="#01ECD2" stroke="#01ECD2"></path>
  </symbol>
  
  <symbol viewBox="0 0 22 12" fill="none" xmlns="http://www.w3.org/2000/svg" id="arr-right">
    <path d="M21.53 6.53a.75.75 0 0 0 0-1.06L16.757.697a.75.75 0 0 0-1.06 1.06L19.939 6l-4.242 4.243a.75.75 0 0 0 1.06 1.06L21.53 6.53zM0 6.75h21v-1.5H0v1.5z" fill="#fff"></path>
  </symbol>

  <symbol viewBox="0 0 78 70" fill="none" xmlns="http://www.w3.org/2000/svg" id="ortodont">
    <path d="M26.14 1.659c-8.97 0-14.89 9.072-14.89 20.263 0 11.191 5.92 46.486 14.89 46.486 5.233 0 5.828-29.31 12.86-29.337 8.385.027 7.626 29.337 12.859 29.337 8.971 0 14.89-35.295 14.89-46.486 0-11.192-5.919-20.263-14.89-20.263-4.286 0-8.573 3.576-12.86 3.576-4.285 0-8.573-3.576-12.859-3.576z"
      fill="#fff"></path>
    <path d="M51.86 69.6c-3.447 0-4.487-5.203-6.063-13.08-1.294-6.469-3.25-16.245-6.802-16.256-2.66.01-4.837 9.601-6.14 15.333C30.825 64.54 29.51 69.6 26.142 69.6c-11.02 0-16.244-38.243-16.244-47.678C9.897 9.49 16.73.467 26.14.467c2.448 0 4.767.967 7.009 1.902 2.063.861 4.012 1.674 5.85 1.674 1.84 0 3.788-.813 5.852-1.674 2.241-.935 4.56-1.902 7.008-1.902 9.412 0 16.244 9.023 16.244 21.455 0 9.435-5.225 47.678-16.244 47.678zM38.993 37.88c5.826.017 7.678 9.274 9.469 18.227.846 4.233 2.126 10.63 3.44 11.115 2.314-.006 6.046-4.765 9.444-18.121 2.534-9.958 4.048-21.64 4.048-27.18 0-11.05-5.693-19.07-13.536-19.07-1.839 0-3.787.812-5.85 1.673-2.242.935-4.561 1.902-7.01 1.902-2.447 0-4.766-.967-7.008-1.902-2.063-.861-4.012-1.673-5.85-1.673-7.843 0-13.537 8.02-13.537 19.07 0 5.54 1.515 17.221 4.048 27.18 3.399 13.356 7.13 18.115 9.488 18.115 1.418-.453 3.072-7.736 4.061-12.087 2.014-8.861 3.914-17.231 8.793-17.25z"
      fill="#00EFD1"></path>
    <path d="M54.566 32.61H23.433c-.723 0-1.309-.516-1.309-1.152V14.77c0-.636.586-1.152 1.31-1.152h31.132c.723 0 1.31.516 1.31 1.152v16.687c0 .636-.587 1.153-1.31 1.153zm-29.824-2.305h28.516V15.923H24.742v14.382z" fill="#CFFFFA"></path>
    <path d="M23.433 20.73H1.775v4.768h21.658V20.73z" fill="#fff"></path>
    <path d="M23.433 26.65H1.776c-.723 0-1.31-.516-1.31-1.152V20.73c0-.636.586-1.153 1.31-1.153h21.657c.723 0 1.31.516 1.31 1.153v4.768c0 .636-.587 1.152-1.31 1.152zM3.084 24.345h19.041v-2.463H3.085v2.463z" fill="#CFFFFA"></path>
    <path d="M76.224 20.73H54.566v4.768h21.658V20.73z" fill="#fff"></path>
    <path d="M76.225 26.65H54.567c-.723 0-1.31-.516-1.31-1.152V20.73c0-.636.586-1.153 1.31-1.153h21.658c.722 0 1.308.516 1.308 1.153v4.768c0 .636-.586 1.152-1.308 1.152zm-20.35-2.305h19.041v-2.463h-19.04v2.463z" fill="#CFFFFA"></path>
  </symbol>

  <symbol viewBox="0 0 79 78" fill="none" xmlns="http://www.w3.org/2000/svg" id="restavration">
    <g clip-path="url(#clip0)">
      <path d="M5.57 16.214h68.003a4.12 4.12 0 0 1 4.107 4.107v8.5a4.121 4.121 0 0 1-4.107 4.108H5.57a4.121 4.121 0 0 1-4.107-4.108v-8.5a4.121 4.121 0 0 1 4.107-4.107z" stroke="#00EFD1" stroke-width="1.5"></path>
      <path d="M73.625 33.679v4.607H63.196V33.07a5.207 5.207 0 0 1 5.215-5.214 5.215 5.215 0 0 1 5.214 5.214v.608zm-23.084-.608v5.215H40.125v-5.344c.06-2.825 2.375-5.085 5.214-5.085a5.196 5.196 0 0 1 5.202 5.214zm-23.059 0v5.215H17.054V33.07a5.207 5.207 0 0 1 5.214-5.214 5.206 5.206 0 0 1 5.214 5.214zm24.166.25h.013v-.25a5.207 5.207 0 0 1 5.214-5.214 5.214 5.214 0 0 1 5.214 5.214v5.215H51.65V33.32zm-12.63-.25v5.215H28.589V33.07a5.207 5.207 0 0 1 5.215-5.214 5.22 5.22 0 0 1 5.214 5.085v.13zm-23.072 0v5.215H5.518V33.07a5.215 5.215 0 0 1 5.214-5.214 5.206 5.206 0 0 1 5.214 5.214z"
        fill="#fff" stroke="#01ECD2" stroke-width=".5"></path>
      <path d="M73.573 62.071H5.57a4.12 4.12 0 0 1-4.107-4.107v-8.5a4.122 4.122 0 0 1 4.107-4.107h68.003a4.122 4.122 0 0 1 4.107 4.107v8.5a4.12 4.12 0 0 1-4.107 4.107z" stroke="#00EFD1" stroke-width="1.5"></path>
      <path d="M5.518 44.607V40h10.428v5.214a5.207 5.207 0 0 1-5.214 5.215 5.215 5.215 0 0 1-5.214-5.215v-.607zm23.084.607V40h10.416v5.344c-.06 2.826-2.375 5.085-5.214 5.085a5.197 5.197 0 0 1-5.203-5.215zm23.058 0V40h10.43v5.214a5.207 5.207 0 0 1-5.215 5.215 5.207 5.207 0 0 1-5.214-5.215zm-24.166-.25h-.012v.25a5.207 5.207 0 0 1-5.214 5.215 5.215 5.215 0 0 1-5.214-5.215V40h10.44v4.964zm12.631.25V40h10.429v5.214a5.207 5.207 0 0 1-5.215 5.215 5.219 5.219 0 0 1-5.214-5.086v-.129zm23.071 0V40h10.429v5.214a5.215 5.215 0 0 1-5.214 5.215 5.207 5.207 0 0 1-5.215-5.215z"
        fill="#fff" stroke="#01ECD2" stroke-width=".5"></path>
    </g>
    <defs>
      <clipPath id="clip0">
        <path fill="#fff" transform="translate(.714 .286)" d="M0 0h77.714v77.714H0z"></path>
      </clipPath>
    </defs>
  </symbol>

  <symbol viewBox="0 0 71 71" fill="none" xmlns="http://www.w3.org/2000/svg" id="therapy">
    <g clip-path="url(#clip0)">
      <path d="M54.792 1.11c-8.696-2.79-15.964.331-19.296 2.254C32.164 1.441 24.897-1.68 16.198 1.11 4.678 4.804-.722 21.626 8.514 35.2c4.376 6.427 4.96 11.385 5.58 16.634.452 3.843.92 7.816 2.877 12.461 1.315 3.123 3.174 6.695 5.925 6.695h.076c2.212-.053 3.995-2.247 5.78-7.115.909-2.482 1.492-5.41 2.055-8.242 1.014-5.096 2.063-10.366 4.698-10.385h.014c2.607 0 3.654 5.272 4.666 10.37.563 2.84 1.146 5.778 2.056 8.257 1.787 4.876 3.57 7.073 5.78 7.125l.075.001c2.745 0 4.607-3.578 5.925-6.706 1.869-4.44 2.358-8.403 2.832-12.236.667-5.396 1.297-10.494 5.634-16.874C71.832 21.436 66.12 4.74 54.792 1.108zm5.401 32.514C55.48 40.56 54.778 46.232 54.1 51.718c-.47 3.813-.916 7.415-2.636 11.5-2.04 4.844-3.224 5.008-3.373 5.008h-.005c-.053 0-1.33-.09-3.241-5.307-.835-2.276-1.397-5.105-1.94-7.842-.61-3.071-1.185-5.973-2.134-8.237-1.215-2.898-2.98-4.367-5.247-4.367h-.038c-2.277.017-4.049 1.497-5.265 4.4-.95 2.264-1.525 5.156-2.134 8.218-.543 2.728-1.104 5.55-1.94 7.828-1.908 5.206-3.187 5.295-3.24 5.297-.125.002-1.322-.112-3.38-4.998-1.804-4.284-2.229-7.89-2.679-11.71-.63-5.35-1.282-10.881-6.04-17.87C2.48 21.403 7.5 6.813 17.046 3.75c8.3-2.662 15.151.795 17.711 2.406a1.386 1.386 0 0 0 1.477 0c2.56-1.61 9.413-5.067 17.712-2.406 9.734 3.12 14.405 17.871 6.247 29.873z"
        fill="#01ECD2"></path>
      <path d="M60.61 14.356a15.015 15.015 0 0 0-1.774-3.576 1.386 1.386 0 1 0-2.291 1.563 12.249 12.249 0 0 1 1.443 2.917c1.382 4.01 1.02 8.69-.99 12.84a1.387 1.387 0 0 0 2.496 1.21c2.328-4.805 2.735-10.255 1.116-14.954z" fill="#00EFD1"></path>
      <path d="M30.456 18.97l-5.582-1.861-1.861-5.583a1.387 1.387 0 0 0-2.631 0L18.52 17.11l-5.583 1.86a1.387 1.387 0 0 0 0 2.632l5.583 1.86 1.86 5.583a1.387 1.387 0 0 0 2.632 0l1.86-5.582 5.583-1.861a1.387 1.387 0 0 0 0-2.631zm-7.117 2.08c-.414.138-.74.463-.877.877l-.765 2.294-.764-2.294a1.387 1.387 0 0 0-.877-.877l-2.294-.765 2.294-.764c.414-.138.739-.463.877-.877l.764-2.294.765 2.294c.138.414.463.739.877.877l2.294.764-2.294.765z"
        fill="#CFFFFA"></path>
    </g>
    <defs>
      <clipPath id="clip0">
        <path fill="#fff" d="M0 0h71v71H0z"></path>
      </clipPath>
    </defs>
  </symbol>

  <symbol viewBox="0 0 78 79" fill="none" xmlns="http://www.w3.org/2000/svg" id="dent">
    <g clip-path="url(#clip0)" fill="#01ECD2">
      <path d="M45.446 7.258c-3.964 3.092-8.927 3.093-12.892 0l-1.529 1.96c2.422 1.89 5.18 2.89 7.975 2.89 2.794 0 5.553-1 7.975-2.89l-1.53-1.96z"></path>
      <path d="M51.038 42.672v-1.053a20.246 20.246 0 0 1 4.34-8.235 22.655 22.655 0 0 0 5.605-14.918v-7.158C60.983 5.296 56.09.405 50.079.405c-2.448 0-4.813.835-6.842 2.416-2.234 1.742-4.543 1.742-6.776 0-2.028-1.58-4.395-2.416-6.842-2.416-6.011 0-10.903 4.891-10.903 10.903v7.158a22.655 22.655 0 0 0 5.605 14.918 20.255 20.255 0 0 1 4.34 8.235v6.025h3.73v3.54l-1.42.202.352 2.46 1.067-.151v2.461l-1.42.203.353 2.46 1.067-.152v2.462l-1.42.202.353 2.46 1.067-.151v2.461l-1.42.203.353 2.46 1.067-.151v1.923l7.46 7.459 7.458-7.46v-4.053l1.42-.203-.352-2.46-1.068.152v-2.462l1.42-.202-.352-2.46-1.068.151v-2.461l1.42-.203-.352-2.46-1.068.151v-2.461l1.42-.203-.352-2.46-1.068.152v-1.409h3.73v-4.972zm-6.216 26.834l-4.973 4.973-4.972-4.973v-1.249l9.945-1.42v2.67zm0-5.18l-9.945 1.421v-2.461l9.945-1.421v2.461zm0-4.972l-9.945 1.42v-2.46l9.945-1.422v2.462zm0-4.973l-9.945 1.42v-2.46l9.945-1.422v2.462zm0-4.973l-9.945 1.421v-3.185h9.945v1.764zm4.034-9.221h-4.034v2.486h3.73v2.485H31.146v-2.486h11.189v-2.486H30.843a22.784 22.784 0 0 0-4.65-8.44 20.158 20.158 0 0 1-4.99-13.28v-7.158c0-4.64 3.774-8.417 8.416-8.417 1.89 0 3.726.654 5.312 1.89 3.13 2.441 6.707 2.441 9.836 0 1.586-1.236 3.424-1.89 5.312-1.89 4.642 0 8.418 3.777 8.418 8.417v7.158c0 4.886-1.773 9.602-4.992 13.281a22.767 22.767 0 0 0-4.65 8.44z"></path>
    </g>
    <defs>
      <clipPath id="clip0">
        <path fill="#fff" transform="translate(.143 .857)" d="M0 0h77.714v77.714H0z"></path>
      </clipPath>
    </defs>
  </symbol>

  <symbol viewBox="0 0 28 25" xmlns="http://www.w3.org/2000/svg" id="heart-select">
    <path d="M25.957 2.43A7.095 7.095 0 0 0 20.562 0c-2.95 0-4.818 1.762-5.865 3.24-.272.384-.503.768-.697 1.13a10.73 10.73 0 0 0-.697-1.13C12.256 1.762 10.388 0 7.437 0a7.095 7.095 0 0 0-5.394 2.43C.726 3.925 0 5.927 0 8.067c0 2.33.91 4.497 2.863 6.82 1.745 2.076 4.256 4.215 7.164 6.693 1.084.924 2.204 1.879 3.397 2.922l.036.032a.818.818 0 0 0 1.08 0l.036-.032c1.193-1.043 2.314-1.998 3.397-2.922 2.908-2.477 5.419-4.617 7.164-6.693C27.09 12.564 28 10.397 28 8.067c0-2.14-.726-4.142-2.043-5.637zM16.91 20.332c-.934.796-1.895 1.615-2.909 2.496-1.014-.881-1.975-1.7-2.91-2.497-5.69-4.849-9.45-8.053-9.45-12.264 0-1.74.58-3.357 1.634-4.552A5.476 5.476 0 0 1 7.437 1.64c2.25 0 3.704 1.385 4.527 2.548a9.722 9.722 0 0 1 1.256 2.497.82.82 0 0 0 1.56 0 9.723 9.723 0 0 1 1.256-2.497c.823-1.163 2.277-2.548 4.526-2.548 1.62 0 3.1.665 4.164 1.874C25.78 4.71 26.36 6.327 26.36 8.067c0 4.211-3.76 7.415-9.45 12.265z"
    ></path>
  </symbol>

  <symbol viewBox="0 0 12 12" fill="none" xmlns="http://www.w3.org/2000/svg" id="liked-heart">
    <path d="M11.048 1.701a3.227 3.227 0 0 0-2.4-1.045c-.693 0-1.327.22-1.886.651A3.858 3.858 0 0 0 6 2.103a3.856 3.856 0 0 0-.762-.796 3.018 3.018 0 0 0-1.886-.65c-.926 0-1.779.37-2.4 1.044C.338 2.367 0 3.277 0 4.263c0 1.014.378 1.943 1.19 2.923.727.877 1.77 1.766 2.98 2.797.412.351.88.75 1.366 1.175a.704.704 0 0 0 .928 0c.486-.425.954-.824 1.367-1.176 1.209-1.03 2.253-1.92 2.979-2.796.812-.98 1.19-1.909 1.19-2.923 0-.986-.338-1.896-.952-2.562z"
      fill="#01ECD2"></path>
  </symbol>

  <symbol viewBox="0 0 14 14" fill="none" xmlns="http://www.w3.org/2000/svg" id="sort-arr">
    <path d="M6.872 3.41L5.34 1.877a.437.437 0 0 0-.62 0L3.192 3.41a.437.437 0 1 0 .618.62l.785-.785v8.569a.438.438 0 0 0 .875 0v-8.57l.784.785a.435.435 0 0 0 .619 0 .437.437 0 0 0 0-.619zm3.938 6.562a.437.437 0 0 0-.62 0l-.784.784V2.187a.438.438 0 0 0-.875 0v8.57l-.784-.785a.437.437 0 1 0-.619.619l1.531 1.53a.436.436 0 0 0 .619 0l1.531-1.53a.437.437 0 0 0 0-.62z"
      fill="#01ECD2"></path>
  </symbol>

  <symbol viewBox="0 0 24 18" fill="none" xmlns="http://www.w3.org/2000/svg" id="arr-back">
    <path d="M18.039 5.47H1.692l3.437-3.852A.606.606 0 1 0 4.224.81L.354 5.149a1.392 1.392 0 0 0 0 1.855l3.87 4.338a.605.605 0 0 0 .856.05.606.606 0 0 0 .05-.857L1.691 6.683h16.347a4.754 4.754 0 0 1 4.748 4.748 4.754 4.754 0 0 1-4.748 4.749h-2.887a.606.606 0 0 0 0 1.212h2.887a5.968 5.968 0 0 0 5.96-5.96 5.968 5.968 0 0 0-5.96-5.962z"
      fill="#01ECD2"></path>
  </symbol>

  <symbol viewBox="0 0 15 8" fill="none" xmlns="http://www.w3.org/2000/svg" id="return-back">
    <path d="M.646 4.354a.5.5 0 0 1 0-.708L3.828.464a.5.5 0 1 1 .708.708L1.707 4l2.829 2.828a.5.5 0 1 1-.708.708L.646 4.354zM15 4.5H1v-1h14v1z" fill="#01ECD2"></path>
  </symbol>

  <symbol viewBox="0 0 40 40" fill="none" xmlns="http://www.w3.org/2000/svg" id="upload">
    <g clip-path="url(#clip0)" fill="#E4E4E4">
      <path d="M34.286 12.857h-7.143a1.429 1.429 0 1 0 0 2.857h7.143c.789 0 1.428.64 1.428 1.429v18.571c0 .79-.64 1.429-1.428 1.429H5.714c-.789 0-1.428-.64-1.428-1.429V17.143c0-.79.64-1.429 1.428-1.429h7.143a1.429 1.429 0 1 0 0-2.857H5.714a4.286 4.286 0 0 0-4.286 4.286v18.571A4.286 4.286 0 0 0 5.714 40h28.572a4.286 4.286 0 0 0 4.286-4.286V17.143a4.286 4.286 0 0 0-4.286-4.286z"></path>
      <path d="M28.153 7.561L21.01.418a1.428 1.428 0 0 0-2.02 0l-7.143 7.143a1.429 1.429 0 0 0 2.02 2.02l4.704-4.704V28.57a1.429 1.429 0 1 0 2.858 0V4.877l4.704 4.704a1.429 1.429 0 0 0 2.02-2.02z"></path>
    </g>
    <defs>
      <clipPath id="clip0">
        <path fill="#fff" d="M0 0h40v40H0z"></path>
      </clipPath>
    </defs>
  </symbol>

  <symbol viewBox="0 0 24 22" fill="none" xmlns="http://www.w3.org/2000/svg" id="message-svg">
    <path fill-rule="evenodd" clip-rule="evenodd" d="M1.793 21.566h1.7a6.301 6.301 0 0 0 4.513-1.922 16.22 16.22 0 0 0 4.034.513c2.807 0 5.277-.623 7.26-1.818a5.054 5.054 0 0 1-.807-1.152c-1.634.962-3.774 1.561-6.453 1.561-1.38 0-2.821-.204-4.06-.574l-.443-.133-.297.352a4.99 4.99 0 0 1-2.207 1.51 5.54 5.54 0 0 0 .561-2.299l.01-.41-.35-.211c-3.142-1.896-4.477-4.97-3.571-8.224.958-3.442 4.532-6.916 10.357-6.916 3.302 0 6.058.924 7.97 2.671 1.63 1.49 2.542 3.484 2.58 5.629.45-.093.922-.143 1.406-.143-.075-2.49-1.146-4.798-3.036-6.526-2.176-1.989-5.26-3.04-8.92-3.04-2.905 0-5.573.818-7.717 2.366C2.351 4.225.931 6.207.326 8.382c-.505 1.812-.422 3.655.24 5.329.662 1.675 1.9 3.136 3.591 4.246a4.069 4.069 0 0 1-1.162 2.406l-1.202 1.203z"
      fill="#01ECD2"></path>
  </symbol>

  <symbol viewBox="0 0 10 10" xmlns="http://www.w3.org/2000/svg" id="ellipse-status">
    <circle cx="5" cy="5" r="5"></circle>
  </symbol>

  <symbol viewBox="0 0 18 18" fill="none" xmlns="http://www.w3.org/2000/svg" id="clock-svg">
    <path d="M9 0a9 9 0 1 0 9 9 9.01 9.01 0 0 0-9-9zm0 16.714A7.714 7.714 0 1 1 16.714 9 7.723 7.723 0 0 1 9 16.714z" fill="#01ECD2"></path>
    <path d="M9 3.214a.643.643 0 0 0-.643.643v4.5h-4.5a.643.643 0 1 0 0 1.286H9A.643.643 0 0 0 9.643 9V3.857A.643.643 0 0 0 9 3.214z" fill="#01ECD2"></path>
  </symbol>

  <symbol viewBox="0 0 18 18" fill="none" xmlns="http://www.w3.org/2000/svg" id="search-svg">
    <path d="M17.89 16.83l-5.229-5.23a7.088 7.088 0 0 0 1.589-4.475A7.133 7.133 0 0 0 7.125 0C3.196 0 0 3.196 0 7.125s3.196 7.125 7.125 7.125a7.088 7.088 0 0 0 4.476-1.589l5.229 5.23a.375.375 0 0 0 .53 0l.53-.531a.375.375 0 0 0 0-.53zM7.125 12.75A5.631 5.631 0 0 1 1.5 7.125 5.631 5.631 0 0 1 7.125 1.5a5.631 5.631 0 0 1 5.625 5.625 5.631 5.631 0 0 1-5.625 5.625z"
      fill="#01ECD2"></path>
  </symbol>

  <symbol viewBox="0 0 18 18" fill="none" xmlns="http://www.w3.org/2000/svg" id="edit-svg">
    <g clip-path="url(#clip0)" fill="#01ECD2">
      <path d="M17.484 10.956a.472.472 0 0 0-.472.472v4.19a1.416 1.416 0 0 1-1.415 1.414H2.359a1.417 1.417 0 0 1-1.415-1.415V3.323c0-.781.634-1.414 1.415-1.415h4.189a.472.472 0 1 0 0-.944h-4.19A2.362 2.362 0 0 0 0 3.323v12.294a2.362 2.362 0 0 0 2.359 2.359h13.238a2.361 2.361 0 0 0 2.358-2.359v-4.189a.472.472 0 0 0-.471-.472z"></path>
      <path d="M7.377 8.474l6.888-6.889 2.222 2.222L9.6 10.695 7.377 8.474zM6.253 11.82l2.455-.68-1.775-1.776-.68 2.455zM17.101.417a1.18 1.18 0 0 0-1.668 0l-.5.5 2.222 2.222.5-.5a1.18 1.18 0 0 0 0-1.668l-.554-.554z"></path>
    </g>
    <defs>
      <clipPath id="clip0">
        <path fill="#fff" d="M0 0h18v18H0z"></path>
      </clipPath>
    </defs>
  </symbol>

  <symbol viewBox="0 0 22 12" fill="none" xmlns="http://www.w3.org/2000/svg" id="more-arr">
    <path d="M21.53 6.053a.75.75 0 0 0 0-1.06L16.757.22a.75.75 0 0 0-1.06 1.06l4.242 4.243-4.242 4.243a.75.75 0 0 0 1.06 1.06l4.773-4.773zM0 6.273h21v-1.5H0v1.5z" fill="#01ECD2"></path>
  </symbol>

  <symbol viewBox="0 0 20 20" fill="none" xmlns="http://www.w3.org/2000/svg" id="calendar-svg">
    <path d="M17.422 1.563h-1.797V.625a.625.625 0 1 0-1.25 0v.938h-8.75V.625a.625.625 0 1 0-1.25 0v.938H2.578A2.581 2.581 0 0 0 0 4.14v13.28A2.581 2.581 0 0 0 2.578 20h14.844A2.581 2.581 0 0 0 20 17.422V4.14a2.581 2.581 0 0 0-2.578-2.579zM2.578 2.813h1.797v.624a.625.625 0 1 0 1.25 0v-.624h8.75v.624a.625.625 0 1 0 1.25 0v-.624h1.797A1.33 1.33 0 0 1 18.75 4.14v1.484H1.25V4.141a1.33 1.33 0 0 1 1.328-1.329zM17.422 18.75H2.578a1.33 1.33 0 0 1-1.328-1.328V6.875h17.5v10.547a1.33 1.33 0 0 1-1.328 1.328z"
      fill="#01ECD2"></path>
  </symbol>

  <symbol viewBox="0 0 28 28" fill="none" xmlns="http://www.w3.org/2000/svg" id="location-svg">
    <g clip-path="url(#clip0)">
      <path d="M14.205.502c3.18.065 6.039 1.76 7.652 4.544a9.248 9.248 0 0 1 .12 9.14l-6.941 12.707-.002.002-.003.007A1.172 1.172 0 0 1 14 27.5a1.17 1.17 0 0 1-1.03-.597l-.001-.001-.004-.007-.001-.002-6.942-12.706a9.247 9.247 0 0 1 .121-9.141C7.756 2.262 10.615.567 13.795.502a9.34 9.34 0 0 1 .41 0zM9.562 8.75A4.442 4.442 0 0 0 14 13.188a4.442 4.442 0 0 0 4.437-4.438A4.442 4.442 0 0 0 14 4.313 4.442 4.442 0 0 0 9.562 8.75z"
        stroke="#01ECD2"></path>
    </g>
    <defs>
      <clipPath id="clip0">
        <path fill="#fff" d="M0 0h28v28H0z"></path>
      </clipPath>
    </defs>
  </symbol>

  <symbol viewBox="0 0 18 18" fill="none" xmlns="http://www.w3.org/2000/svg" id="phone-svg">
    <g clip-path="url(#clip0)">
      <path d="M16.556 11.815c-1.102 0-2.184-.172-3.21-.511-.511-.175-1.093-.04-1.427.3l-2.024 1.528c-2.347-1.253-3.792-2.698-5.028-5.027L6.35 6.133c.385-.384.523-.946.357-1.474a10.235 10.235 0 0 1-.513-3.215C6.194.648 5.546 0 4.75 0H1.444C.648 0 0 .648 0 1.444 0 10.574 7.427 18 16.556 18c.796 0 1.444-.648 1.444-1.444v-3.297c0-.796-.648-1.444-1.444-1.444zm.444 4.74c0 .246-.2.445-.444.445C7.978 17 1 10.022 1 1.444 1 1.2 1.2 1 1.444 1H4.75c.245 0 .444.2.444.444 0 1.21.19 2.397.562 3.521.052.166.01.338-.158.513l-1.72 2.276a.5.5 0 0 0-.046.528c1.403 2.758 3.107 4.462 5.884 5.885a.5.5 0 0 0 .53-.046l2.328-1.764a.441.441 0 0 1 .453-.105c1.133.373 2.32.563 3.529.563.245 0 .444.2.444.444v3.297z"
        fill="#01ECD2"></path>
    </g>
    <defs>
      <clipPath id="clip0">
        <path fill="#fff" d="M0 0h18v18H0z"></path>
      </clipPath>
    </defs>
  </symbol>

  <symbol viewBox="0 0 20 21" fill="none" xmlns="http://www.w3.org/2000/svg" id="rate-star">
    <path d="M19.948 7.987a1.071 1.071 0 0 0-.915-.763l-5.773-.547-2.282-5.575A1.063 1.063 0 0 0 10 .43c-.426 0-.81.265-.977.674L6.74 6.677l-5.773.547c-.425.041-.783.34-.915.763a1.14 1.14 0 0 0 .311 1.178l4.364 3.993-1.287 5.915c-.094.434.067.884.413 1.145a1.026 1.026 0 0 0 1.167.053L10 17.165l4.978 3.106c.364.229.823.208 1.168-.053.346-.262.508-.712.413-1.145l-1.286-5.915 4.363-3.992c.321-.293.444-.756.312-1.18z"
      fill="#01ECD2"></path>
  </symbol>

  <symbol viewBox="0 0 20 20" fill="none" xmlns="http://www.w3.org/2000/svg" id="settings">
    <g clip-path="url(#clip0)" fill="#01ECD2">
      <path d="M19.547 3.687h-7.948c-.19-.883-1.002-1.575-1.933-1.575a1.97 1.97 0 0 0-1.933 1.575H.43c-.24 0-.43.191-.43.43s.19.43.43.43h7.279c.19.883 1.002 1.575 1.933 1.575a1.97 1.97 0 0 0 1.933-1.575h7.972c.238 0 .43-.191.43-.43s-.192-.43-.43-.43zm-9.881 1.6c-.62 0-1.146-.502-1.146-1.146a1.13 1.13 0 0 1 1.146-1.146 1.146 1.146 0 0 1 0 2.291zm9.904 4.295H7.518C7.327 8.7 6.516 8.007 5.585 8.007a1.97 1.97 0 0 0-1.933 1.575H.43c-.24 0-.43.191-.43.43s.19.43.43.43h3.222c.19.883 1.002 1.575 1.933 1.575a1.97 1.97 0 0 0 1.933-1.575H19.57c.24 0 .43-.191.43-.43s-.19-.43-.43-.43zM5.585 11.158c-.62 0-1.146-.502-1.146-1.146 0-.62.525-1.146 1.146-1.146a1.146 1.146 0 0 1 0 2.292zm13.962 4.296h-3.748c-.19-.884-1.002-1.576-1.933-1.576a1.97 1.97 0 0 0-1.933 1.575H.43c-.24 0-.43.191-.43.43s.19.43.43.43h11.48c.19.883 1.002 1.575 1.932 1.575a1.97 1.97 0 0 0 1.934-1.575h3.77c.24 0 .43-.191.43-.43s-.19-.43-.43-.43zm-5.705 1.598a1.146 1.146 0 1 1 1.146-1.145 1.13 1.13 0 0 1-1.146 1.145z"></path>
    </g>
    <defs>
      <clipPath id="clip0">
        <path fill="#fff" d="M0 0h20v20H0z"></path>
      </clipPath>
    </defs>
  </symbol>

  <symbol viewBox="0 0 14 14" fill="none" xmlns="http://www.w3.org/2000/svg" id="message-status">
    <g clip-path="url(#clip0)">
      <path d="M0 7.717l3.364 3.364.853-.852L.852 6.865 0 7.717zm10.593-3.865L9.741 3l-3.82 3.822.853.853 3.82-3.823z" fill="#01ECD2"></path>
      <path d="M13.15 3L6.772 9.376 4.26 6.864l-.852.853L6.77 11.08 14 3.852 13.15 3z" fill="#AAAFBE"></path>
    </g>
    <defs>
      <clipPath id="clip0">
        <path fill="#fff" d="M0 0h14v14H0z"></path>
      </clipPath>
    </defs>
  </symbol>

  <symbol viewBox="0 0 20 18" fill="none" xmlns="http://www.w3.org/2000/svg" id="message-btn">
    <path d="M2.911 17.805H1.494l1.002-1.002c.54-.54.878-1.243.969-2.006-1.41-.925-2.441-2.142-2.993-3.538-.552-1.395-.621-2.93-.2-4.441.504-1.812 1.687-3.464 3.33-4.651C5.39.877 7.613.195 10.034.195c3.05 0 5.62.876 7.434 2.534C19.1 4.222 20 6.236 20 8.4a7.55 7.55 0 0 1-.636 3.041 7.823 7.823 0 0 1-1.902 2.646c-1.816 1.664-4.384 2.544-7.429 2.544-1.13 0-2.309-.15-3.362-.428a5.252 5.252 0 0 1-3.76 1.602zM10.033 1.37c-4.854 0-7.832 2.895-8.63 5.764-.755 2.71.357 5.273 2.975 6.853l.293.176-.01.342a4.622 4.622 0 0 1-.467 1.915 4.158 4.158 0 0 0 1.84-1.258l.247-.293.368.11c1.033.309 2.235.479 3.384.479 6.042 0 8.793-3.658 8.793-7.057 0-1.83-.764-3.537-2.151-4.805-1.594-1.456-3.89-2.226-6.642-2.226z"
      fill="#01ECD2"></path>
  </symbol>

  <symbol viewBox="0 0 20 18" fill="none" xmlns="http://www.w3.org/2000/svg" id="error">
    <path d="M19.81 15.582L11.22.704A1.394 1.394 0 0 0 10 0c-.509 0-.965.263-1.22.704L.19 15.582c-.254.44-.254.967 0 1.408.255.44.711.704 1.22.704h17.18c.509 0 .965-.263 1.22-.704.254-.44.254-.967 0-1.408zm-1.017.821a.227.227 0 0 1-.203.117H1.41a.227.227 0 0 1-.203-.117.227.227 0 0 1 0-.234L9.797 1.29A.227.227 0 0 1 10 1.173c.05 0 .144.016.203.118l8.59 14.878a.227.227 0 0 1 0 .234z"
      fill="#01ECD2"></path>
    <path d="M10.587 5.335H9.414v6.258h1.173V5.335zM10 14.33a.782.782 0 1 0 0-1.564.782.782 0 0 0 0 1.565z" fill="#01ECD2"></path>
  </symbol>
</svg>