<svg width="71" height="71" viewBox="0 0 71 71" fill="none" xmlns="http://www.w3.org/2000/svg">
<g clip-path="url(#clip0)">
<path d="M54.7924 1.10924C46.0957 -1.67945 38.8278 1.44122 35.4956 3.36418C32.1638 1.4408 24.897 -1.68001 16.1982 1.10924C4.67852 4.80442 -0.722323 21.6256 8.51418 35.1982C12.8902 41.6259 13.4746 46.5839 14.0932 51.833C14.5461 55.6755 15.0144 59.6488 16.9705 64.2941C18.2859 67.417 20.1454 70.9893 22.8965 70.989C22.9213 70.989 22.9467 70.9887 22.9717 70.9882C25.1839 70.9359 26.9667 68.7418 28.7516 63.8737C29.6609 61.3922 30.2435 58.464 30.8069 55.6325C31.821 50.5357 32.8698 45.2655 35.5055 45.2471C35.5102 45.2471 35.5148 45.2471 35.5195 45.2471C38.1264 45.2471 39.1728 50.5191 40.1848 55.6174C40.7485 58.4579 41.3315 61.3954 42.2406 63.874C44.0278 68.7496 45.8105 70.9471 48.0206 70.9993C48.0457 70.9998 48.0705 71.0001 48.0956 71.0001C50.8412 71.0001 52.7031 67.4221 54.0205 64.2939C55.8898 59.8549 56.3795 55.8914 56.853 52.0584C57.5198 46.6617 58.1495 41.5644 62.4871 35.1835C71.8318 21.4356 66.1188 4.74008 54.7924 1.10924ZM60.1932 33.6243C55.4789 40.5593 54.7781 46.2322 54.1003 51.7183C53.6292 55.5314 53.1842 59.133 51.4642 63.2173C49.4235 68.0623 48.2401 68.2265 48.0905 68.2265C48.0888 68.2265 48.0874 68.2265 48.0861 68.2265C48.0327 68.2253 46.7568 68.1357 44.8446 62.919C44.0098 60.6431 43.4483 57.8137 42.9053 55.0774C42.2957 52.0058 41.7199 49.1044 40.7709 46.8397C39.5565 43.9422 37.7915 42.4734 35.5241 42.4734C35.5115 42.4734 35.4986 42.4734 35.4859 42.4735C33.2091 42.4895 31.4374 43.9696 30.2206 46.8731C29.2719 49.1365 28.6963 52.0291 28.0871 55.0913C27.5442 57.8192 26.983 60.6402 26.1479 62.9193C24.2393 68.1247 22.9603 68.2143 22.9068 68.2156C22.7825 68.2178 21.5852 68.1041 19.5271 63.2177C17.7234 58.9343 17.2982 55.3274 16.8482 51.5085C16.2177 46.1587 15.5656 40.6268 10.8075 33.6379C2.48099 21.4027 7.50007 6.81253 17.0457 3.75052C25.3466 1.08871 32.1973 4.54649 34.7574 6.15689C35.2085 6.44075 35.7826 6.44089 36.2337 6.15703C38.7946 4.54705 45.6471 1.08954 53.9458 3.75066C63.6804 6.87091 68.3514 21.6223 60.1932 33.6243Z" fill="#01ECD2"/>
<path d="M60.6098 14.3563C60.1594 13.0487 59.5624 11.8456 58.8356 10.7802C58.4039 10.1473 57.5412 9.98435 56.9086 10.416C56.2759 10.8476 56.1129 11.7103 56.5446 12.343C57.1322 13.2043 57.6176 14.1857 57.9876 15.2596C59.3695 19.2705 59.0089 23.9505 56.9983 28.0997C56.6643 28.7889 56.9523 29.6183 57.6415 29.9524C58.3308 30.2864 59.1602 29.9984 59.4942 29.3092C61.8222 24.5052 62.2289 19.055 60.6098 14.3563Z" fill="#00EFD1"/>
<path d="M30.4562 18.9699L24.8737 17.109L23.0128 11.5265C22.8241 10.9603 22.2941 10.5783 21.6973 10.5783C21.1004 10.5783 20.5706 10.9602 20.3817 11.5265L18.5209 17.109L12.9383 18.9699C12.3722 19.1586 11.9901 19.6886 11.9901 20.2854C11.9901 20.8823 12.372 21.4122 12.9383 21.601L18.5209 23.4619L20.3817 29.0444C20.5704 29.6106 21.1004 29.9926 21.6973 29.9926C22.2941 29.9926 22.824 29.6107 23.0128 29.0444L24.8737 23.4619L30.4562 21.601C31.0224 21.4123 31.4044 20.8823 31.4044 20.2854C31.4044 19.6886 31.0225 19.1587 30.4562 18.9699ZM23.3389 21.0499C22.9248 21.1879 22.5997 21.5128 22.4618 21.927L21.6973 24.2207L20.9328 21.927C20.7948 21.513 20.4699 21.1879 20.0557 21.0499L17.762 20.2854L20.0557 19.5209C20.4697 19.383 20.7948 19.0581 20.9328 18.6439L21.6973 16.3502L22.4618 18.6439C22.5997 19.0579 22.9246 19.383 23.3389 19.5209L25.6325 20.2854L23.3389 21.0499Z" fill="#CFFFFA"/>
</g>
<defs>
<clipPath id="clip0">
<rect width="71" height="71" fill="white"/>
</clipPath>
</defs>
</svg>
