<svg width="68" height="68" viewBox="0 0 68 68" fill="none" xmlns="http://www.w3.org/2000/svg">
<g clip-path="url(#clip0)">
<path d="M52.4772 1.06237C44.148 -1.60849 37.1872 1.38032 33.9959 3.22203C30.8048 1.37992 23.845 -1.60902 15.5138 1.06237C4.48085 4.60142 -0.691785 20.7118 8.15444 33.711C12.3456 39.8671 12.9053 44.6155 13.4977 49.6429C13.9315 53.323 14.38 57.1285 16.2535 61.5774C17.5133 64.5684 19.2942 67.9897 21.9291 67.9895C21.9528 67.9895 21.9771 67.9892 22.001 67.9887C24.1198 67.9386 25.8272 65.8372 27.5368 61.1749C28.4076 58.7982 28.9656 55.9937 29.5052 53.2818C30.4765 48.4004 31.4809 43.3529 34.0053 43.3352C34.0098 43.3352 34.0142 43.3352 34.0187 43.3352C36.5154 43.3352 37.5176 48.3845 38.4869 53.2673C39.0268 55.9879 39.5851 58.8012 40.4558 61.1751C42.1675 65.8447 43.8748 67.9494 45.9916 67.9993C46.0156 67.9998 46.0394 68.0001 46.0634 68.0001C48.693 68.0001 50.4763 64.5733 51.738 61.5773C53.5283 57.3258 53.9972 53.5298 54.4508 49.8587C55.0894 44.6901 55.6925 39.8081 59.8468 33.6969C68.7966 20.5299 63.325 4.53979 52.4772 1.06237ZM57.6498 32.2036C53.1348 38.8455 52.4635 44.2787 51.8143 49.5331C51.3632 53.185 50.937 56.6344 49.2897 60.5461C47.3352 65.1865 46.2018 65.3437 46.0585 65.3437C46.0569 65.3437 46.0556 65.3437 46.0543 65.3437C46.0031 65.3425 44.7811 65.2567 42.9498 60.2604C42.1503 58.0807 41.6125 55.3708 41.0924 52.7502C40.5086 49.8084 39.9571 47.0295 39.0482 44.8606C37.8851 42.0855 36.1947 40.6787 34.0231 40.6787C34.011 40.6787 33.9986 40.6787 33.9866 40.6788C31.8059 40.6941 30.1091 42.1118 28.9437 44.8926C28.0351 47.0604 27.4838 49.8307 26.9004 52.7635C26.3804 55.3761 25.8429 58.0779 25.0431 60.2607C23.2151 65.2462 21.9902 65.332 21.9389 65.3332C21.8199 65.3353 20.6732 65.2264 18.702 60.5465C16.9745 56.4441 16.5673 52.9896 16.1363 49.3321C15.5324 44.2083 14.9079 38.9102 10.3509 32.2166C2.37618 20.4984 7.18318 6.52468 16.3254 3.59205C24.2756 1.04271 30.8369 4.35439 33.2888 5.89674C33.7208 6.16861 34.2706 6.16874 34.7027 5.89687C37.1555 4.35492 43.7184 1.04351 51.6664 3.59218C60.9897 6.58059 65.4633 20.7086 57.6498 32.2036Z" fill="#01ECD2"/>
<path d="M58.0486 13.7497C57.6173 12.4974 57.0455 11.3451 56.3494 10.3247C55.936 9.71853 55.1098 9.56248 54.5039 9.97592C53.8979 10.3892 53.7418 11.2155 54.1553 11.8215C54.718 12.6464 55.183 13.5863 55.5373 14.6148C56.8608 18.4563 56.5155 22.9385 54.5898 26.9124C54.2699 27.5725 54.5457 28.3668 55.2058 28.6868C55.866 29.0067 56.6604 28.7309 56.9802 28.0708C59.2098 23.4698 59.5994 18.2499 58.0486 13.7497Z" fill="#01ECD2"/>
<path d="M29.1695 18.1683L23.8228 16.3861L22.0406 11.0395C21.8599 10.4972 21.3523 10.1313 20.7806 10.1313C20.209 10.1313 19.7015 10.4971 19.5206 11.0395L17.7384 16.3861L12.3918 18.1683C11.8495 18.3491 11.4836 18.8567 11.4836 19.4283C11.4836 19.9999 11.8494 20.5074 12.3918 20.6883L17.7384 22.4705L19.5206 27.8171C19.7014 28.3594 20.209 28.7253 20.7806 28.7253C21.3523 28.7253 21.8597 28.3595 22.0406 27.8171L23.8228 22.4705L29.1695 20.6883C29.7117 20.5075 30.0776 19.9999 30.0776 19.4283C30.0776 18.8567 29.7119 18.3492 29.1695 18.1683ZM22.3529 20.1605C21.9563 20.2927 21.645 20.6038 21.5128 21.0005L20.7806 23.1973L20.0484 21.0005C19.9163 20.604 19.6051 20.2927 19.2084 20.1605L17.0117 19.4283L19.2084 18.6961C19.605 18.564 19.9163 18.2528 20.0484 17.8561L20.7806 15.6594L21.5128 17.8561C21.645 18.2527 21.9562 18.564 22.3529 18.6961L24.5496 19.4283L22.3529 20.1605Z" fill="#01ECD2"/>
</g>
<defs>
<clipPath id="clip0">
<rect width="68" height="68" fill="white"/>
</clipPath>
</defs>
</svg>
