<svg width="40" height="40" viewBox="0 0 40 40" fill="none" xmlns="http://www.w3.org/2000/svg">
<g clip-path="url(#clip0)">
<path d="M34.2859 12.8569H27.143C26.354 12.8569 25.7144 13.4965 25.7144 14.2855C25.7144 15.0745 26.354 15.7141 27.143 15.7141H34.2859C35.0749 15.7141 35.7145 16.3537 35.7145 17.1427V35.7143C35.7145 36.5033 35.0749 37.1429 34.2859 37.1429H5.71424C4.92523 37.1429 4.28563 36.5033 4.28563 35.7143V17.1426C4.28563 16.3536 4.92523 15.714 5.71424 15.714H12.8571C13.6461 15.714 14.2857 15.0744 14.2857 14.2854C14.2857 13.4964 13.6461 12.8568 12.8571 12.8568H5.71424C3.34729 12.8568 1.4285 14.7756 1.4285 17.1426V35.7142C1.4285 38.0811 3.34729 39.9999 5.71424 39.9999H34.2859C36.6528 39.9999 38.5716 38.0811 38.5716 35.7142V17.1426C38.5716 14.7757 36.6528 12.8569 34.2859 12.8569Z" fill="#E4E4E4"/>
<path d="M28.1529 7.56115L21.01 0.418269C20.4522 -0.139464 19.5479 -0.139464 18.99 0.418269L11.8471 7.56115C11.299 8.12868 11.3147 9.03304 11.8822 9.58115C12.4359 10.1159 13.3135 10.1159 13.8672 9.58115L18.5715 4.87679V28.5714C18.5715 29.3604 19.2111 30 20.0001 30C20.7891 30 21.4287 29.3604 21.4287 28.5714V4.87687L26.1331 9.58123C26.7006 10.1293 27.605 10.1136 28.1531 9.54607C28.6876 8.99244 28.6876 8.11479 28.1529 7.56115Z" fill="#E4E4E4"/>
</g>
<defs>
<clipPath id="clip0">
<rect width="40" height="40" fill="white"/>
</clipPath>
</defs>
</svg>
