<svg width="42" height="42" viewBox="0 0 42 42" fill="none" xmlns="http://www.w3.org/2000/svg">
<path d="M32.3109 33.0028L32.3109 33.0027C32.3123 32.9185 32.3128 32.8341 32.3123 32.7494V32.7494C32.2786 26.5873 27.2493 21.547 21.0873 21.5003C14.8101 21.4527 9.6875 26.5461 9.6875 32.8125C9.6875 32.8998 9.68852 32.9871 9.69049 33.0741L32.3109 33.0028ZM32.3109 33.0028C32.249 36.7389 29.6423 39.9614 26.0089 40.8776C24.3819 41.2879 22.6999 41.5 21 41.5C19.2998 41.5 17.6174 41.2878 15.9902 40.8774C12.3813 39.9671 9.77508 36.7819 9.69049 33.0742L32.3109 33.0028Z" fill="#01ECD2" stroke="#01ECD2"/>
<path d="M35.8486 6.15005C31.9055 2.20721 26.5762 0 20.9999 0C15.3906 0 10.1171 2.18441 6.1507 6.1507C2.18433 10.1171 0 15.3906 0 21C0 25.9503 1.75522 30.7571 4.94287 34.5355C5.31431 34.9753 5.70478 35.4008 6.11141 35.8095C6.39548 36.095 6.87553 35.8373 6.80236 35.4413C6.64486 34.5886 6.5625 33.71 6.5625 32.8125C6.5625 26.8218 10.2302 21.6717 15.4381 19.4895C15.7084 19.3762 15.7781 19.0215 15.5661 18.8191C14.0009 17.325 13.0485 15.1943 13.1298 12.847C13.2718 8.74658 16.5891 5.4148 20.6889 5.25607C25.1723 5.08241 28.875 8.67948 28.875 13.125C28.875 15.3622 27.937 17.3841 26.4338 18.8191C26.2219 19.0215 26.2917 19.3762 26.5619 19.4895C31.7698 21.6717 35.4375 26.8218 35.4375 32.8125C35.4375 33.71 35.3551 34.5886 35.1976 35.4412C35.1244 35.8372 35.6044 36.0949 35.8885 35.8094C36.2952 35.4007 36.6859 34.975 37.0575 34.5349C40.2448 30.7572 42 25.9504 42 21C42 15.3903 39.8154 10.1164 35.8486 6.15005Z" fill="#F5F8F7"/>
<path d="M25.75 13.125C25.75 15.7484 23.6234 17.875 21 17.875C18.3766 17.875 16.25 15.7484 16.25 13.125C16.25 10.5016 18.3766 8.375 21 8.375C23.6234 8.375 25.75 10.5016 25.75 13.125Z" fill="#01ECD2" stroke="#01ECD2"/>
</svg>
