<svg width="32" height="34" viewBox="0 0 32 34" fill="none" xmlns="http://www.w3.org/2000/svg">
<rect y="0.230347" width="32" height="32.8377" rx="16" fill="#675DA9"/>
<path d="M23.8357 8.56602C23.3064 8.06671 21.1638 6.46802 16.3876 6.44612C16.3876 6.44612 10.7578 6.09573 8.01335 8.6799C6.48532 10.2479 5.94753 12.5386 5.89204 15.3856C5.83655 18.2282 5.76399 23.5586 10.7706 25.004H10.7749L10.7706 27.2071C10.7706 27.2071 10.7407 28.1006 11.3127 28.2802C12.0041 28.4992 12.4139 27.8203 13.0755 27.0889C13.4383 26.6859 13.9376 26.099 14.3175 25.6479C17.7406 25.9413 20.3741 25.2668 20.6729 25.1661C21.3644 24.9339 25.2783 24.4215 25.9143 19.0911C26.5716 13.6074 25.5942 10.134 23.8357 8.56602ZM24.4161 18.7056C23.8783 23.1557 20.7071 23.436 20.1223 23.6287C19.8748 23.7119 17.5614 24.3032 14.6504 24.1061C14.6504 24.1061 12.4822 26.791 11.8078 27.4875C11.7011 27.597 11.5773 27.6408 11.4962 27.6189C11.381 27.5882 11.3468 27.448 11.3511 27.2422C11.3511 26.9443 11.3682 23.5761 11.3682 23.5761C11.3639 23.5761 11.3639 23.5761 11.3682 23.5761C7.12982 22.3717 7.37738 17.834 7.42433 15.4601C7.47128 13.0861 7.90664 11.1371 9.19991 9.82745C11.5176 7.67251 16.3022 7.99225 16.3022 7.99225C20.34 8.00977 22.2735 9.25806 22.7217 9.67415C24.2113 10.9881 24.971 14.1198 24.4161 18.7056Z" fill="white"/>
<path d="M18.3554 15.5433C18.2145 15.5433 18.095 15.4294 18.0865 15.2805C18.0395 14.3388 17.6085 13.8789 16.7292 13.8308C16.5798 13.822 16.4646 13.6906 16.4731 13.5373C16.4816 13.384 16.6097 13.2657 16.7591 13.2745C17.92 13.3402 18.5688 14.0235 18.6286 15.2499C18.6371 15.4032 18.5219 15.5346 18.3725 15.5389C18.3639 15.5433 18.3597 15.5433 18.3554 15.5433Z" fill="white"/>
<path d="M19.7384 16.0165H19.7342C19.5848 16.0121 19.4653 15.8851 19.4696 15.7318C19.4909 14.7857 19.2263 14.0192 18.6629 13.3885C18.1037 12.7578 17.3312 12.4161 16.3111 12.3417C16.1617 12.3285 16.0507 12.1971 16.0635 12.0438C16.0763 11.8905 16.2044 11.7766 16.3537 11.7898C17.5062 11.8774 18.4153 12.2891 19.0641 13.0162C19.7171 13.7476 20.033 14.663 20.0116 15.7449C20.0073 15.8982 19.8836 16.0165 19.7384 16.0165Z" fill="white"/>
<path d="M21.155 16.5857C21.0056 16.5857 20.8861 16.463 20.8861 16.3097C20.8733 14.6147 20.3995 13.3226 19.4349 12.3546C18.4831 11.3998 17.2752 10.9136 15.8539 10.9005C15.7045 10.9005 15.585 10.7735 15.585 10.6202C15.585 10.4669 15.7087 10.3442 15.8539 10.3442C17.4203 10.3574 18.752 10.8961 19.8062 11.9561C20.8648 13.016 21.4068 14.4789 21.4239 16.301C21.4282 16.4587 21.3087 16.5857 21.155 16.5857C21.1593 16.5857 21.1593 16.5857 21.155 16.5857Z" fill="white"/>
<path d="M16.7928 18.9728C16.7928 18.9728 17.1727 19.0078 17.3775 18.7494L17.7745 18.2369C17.9666 17.9829 18.4318 17.8208 18.8842 18.0792C19.136 18.2238 19.5927 18.5129 19.8744 18.7275C20.1775 18.9552 20.7921 19.4808 20.7964 19.4852C21.0909 19.7393 21.1592 20.1115 20.9586 20.5101C20.9586 20.5101 20.9586 20.5145 20.9586 20.5189C20.7537 20.8912 20.4763 21.2416 20.1305 21.5657C20.1263 21.5657 20.1263 21.5701 20.122 21.5701C19.836 21.8154 19.5543 21.9555 19.2812 21.9862C19.247 21.9949 19.2086 21.9949 19.1574 21.9949C19.0379 21.9949 18.9184 21.9774 18.7989 21.938L18.7903 21.9249C18.3635 21.8022 17.655 21.4956 16.4769 20.8255C15.7087 20.3919 15.0727 19.9495 14.5306 19.5071C14.2447 19.275 13.9544 19.0166 13.6556 18.71C13.6471 18.7012 13.6343 18.6881 13.6258 18.6793C13.6172 18.6705 13.6044 18.6574 13.5959 18.6486C13.5874 18.6399 13.5745 18.6267 13.566 18.618C13.5575 18.6092 13.5447 18.5961 13.5361 18.5873C13.2416 18.2807 12.9855 17.9829 12.7593 17.6894C12.3282 17.1376 11.8971 16.4806 11.4746 15.6922C10.8215 14.4789 10.5228 13.7518 10.4033 13.3182L10.3904 13.3095C10.352 13.1868 10.335 13.0642 10.335 12.9416C10.335 12.889 10.335 12.8496 10.3435 12.8145C10.3776 12.5298 10.5142 12.2451 10.749 11.9517C10.749 11.9473 10.7532 11.9473 10.7532 11.9429C11.0691 11.5838 11.4106 11.3034 11.7734 11.0932C11.7734 11.0932 11.7776 11.0932 11.7819 11.0932C12.166 10.8874 12.5288 10.9574 12.7807 11.2596C12.7807 11.2596 13.2971 11.8947 13.5191 12.2057C13.7282 12.4992 14.0099 12.9635 14.1508 13.2219C14.4026 13.6861 14.2447 14.1636 13.9971 14.3607L13.4977 14.768C13.2459 14.9782 13.28 15.3681 13.28 15.3681C13.28 15.3681 14.0184 18.2501 16.7928 18.9728Z" fill="white"/>
</svg>
