<svg width="32" height="34" viewBox="0 0 32 34" fill="none" xmlns="http://www.w3.org/2000/svg">
<rect y="0.230347" width="32" height="32.8377" rx="16" fill="#0DC143"/>
<path d="M23.1676 9.26854C21.4523 7.45655 19.0811 6.4729 16.6595 6.4729C11.5136 6.4729 7.37662 10.7699 7.42707 15.9988C7.42707 17.6555 7.88113 19.2604 8.63788 20.71L7.32617 25.6282L12.2199 24.3339C13.582 25.1105 15.0955 25.4729 16.6091 25.4729C21.7046 25.4729 25.8415 21.1759 25.8415 15.947C25.8415 13.4102 24.8829 11.0288 23.1676 9.26854ZM16.6595 23.868C15.2973 23.868 13.9352 23.5056 12.7748 22.7808L12.4721 22.6255L9.54599 23.4021L10.3027 20.4511L10.1009 20.1405C7.88113 16.4647 8.94059 11.5982 12.573 9.32031C16.2055 7.04238 20.8973 8.12958 23.1172 11.8571C25.337 15.5846 24.2775 20.3993 20.6451 22.6773C19.4847 23.4538 18.0721 23.868 16.6595 23.868ZM21.0991 18.1214L20.5442 17.8626C20.5442 17.8626 19.737 17.5002 19.2325 17.2413C19.182 17.2413 19.1316 17.1895 19.0811 17.1895C18.9298 17.1895 18.8289 17.2413 18.728 17.2931C18.728 17.2931 18.6775 17.3448 17.9712 18.1732C17.9208 18.2767 17.8199 18.3285 17.719 18.3285H17.6685C17.6181 18.3285 17.5172 18.2767 17.4667 18.225L17.2145 18.1214C16.6595 17.8626 16.155 17.5519 15.7514 17.1378C15.6505 17.0342 15.4991 16.9307 15.3982 16.8271C15.0451 16.4647 14.6919 16.0506 14.4397 15.5846L14.3892 15.4811C14.3388 15.4293 14.3388 15.3775 14.2883 15.274C14.2883 15.1705 14.2883 15.0669 14.3388 15.0151C14.3388 15.0151 14.5406 14.7563 14.6919 14.601C14.7928 14.4974 14.8433 14.3421 14.9442 14.2386C15.0451 14.0833 15.0955 13.8762 15.0451 13.7209C14.9946 13.462 14.3892 12.0642 14.2379 11.7536C14.137 11.5982 14.0361 11.5465 13.8847 11.4947H13.7334C13.6325 11.4947 13.4811 11.4947 13.3298 11.4947C13.2289 11.4947 13.128 11.5465 13.0271 11.5465L12.9766 11.5982C12.8757 11.65 12.7748 11.7536 12.6739 11.8053C12.573 11.9089 12.5226 12.0124 12.4217 12.116C12.0685 12.5819 11.8667 13.1514 11.8667 13.7209C11.8667 14.135 11.9676 14.5492 12.119 14.9116L12.1694 15.0669C12.6235 16.0506 13.2289 16.9307 14.0361 17.7072L14.2379 17.9143C14.3892 18.0696 14.5406 18.1732 14.6415 18.3285C15.7009 19.2604 16.9118 19.9334 18.2739 20.2958C18.4253 20.3476 18.6271 20.3476 18.7784 20.3993C18.9298 20.3993 19.1316 20.3993 19.2829 20.3993C19.5352 20.3993 19.8379 20.2958 20.0397 20.1923C20.191 20.0887 20.2919 20.0887 20.3928 19.9852L20.4937 19.8816C20.5946 19.7781 20.6955 19.7263 20.7964 19.6228C20.8973 19.5192 20.9982 19.4157 21.0487 19.3121C21.1496 19.1051 21.2 18.8462 21.2505 18.5873C21.2505 18.4838 21.2505 18.3285 21.2505 18.225C21.2505 18.225 21.2 18.1732 21.0991 18.1214Z" fill="white"/>
</svg>
